solid JSxCAD
facet normal -0.9884673664942782 0.1514340297815076 0
outer loop
vertex 1.98974 -0.20234 0
vertex 1.95906 -0.4026 5
vertex 1.98974 -0.20234 5
endloop
endfacet
facet normal -0.9884673664942787 0.15143402978150416 0
outer loop
vertex 1.95906 -0.4026 5
vertex 1.98974 -0.20234 0
vertex 1.95906 -0.4026 0
endloop
endfacet
facet normal -0.9680790056333837 0.2506452450214834 0
outer loop
vertex 1.95906 -0.4026 5
vertex 1.90828 -0.59873 0
vertex 1.90828 -0.59873 5
endloop
endfacet
facet normal -0.9680790056333837 0.2506452450214834 0
outer loop
vertex 1.90828 -0.59873 0
vertex 1.95906 -0.4026 5
vertex 1.95906 -0.4026 0
endloop
endfacet
facet normal -0.9377535240270165 0.347301494633858 0
outer loop
vertex 1.90828 -0.59873 0
vertex 1.83792 -0.78871 5
vertex 1.90828 -0.59873 5
endloop
endfacet
facet normal -0.9377535240270155 0.3473014946338612 0
outer loop
vertex 1.83792 -0.78871 5
vertex 1.90828 -0.59873 0
vertex 1.83792 -0.78871 0
endloop
endfacet
facet normal -0.8977875689161982 0.44042874690413025 0
outer loop
vertex 1.83792 -0.78871 0
vertex 1.74869 -0.9706 5
vertex 1.83792 -0.78871 5
endloop
endfacet
facet normal -0.8977875689161982 0.44042874690413025 0
outer loop
vertex 1.74869 -0.9706 5
vertex 1.83792 -0.78871 0
vertex 1.74869 -0.9706 0
endloop
endfacet
facet normal -0.8486686769668457 0.5289248308931462 0
outer loop
vertex 1.74869 -0.9706 0
vertex 1.64153 -1.14254 5
vertex 1.74869 -0.9706 5
endloop
endfacet
facet normal -0.8486686769668457 0.5289248308931462 0
outer loop
vertex 1.64153 -1.14254 5
vertex 1.74869 -0.9706 0
vertex 1.64153 -1.14254 0
endloop
endfacet
facet normal -0.7907614734531527 0.6121244090070241 0
outer loop
vertex 1.64153 -1.14254 0
vertex 1.51752 -1.30274 5
vertex 1.64153 -1.14254 5
endloop
endfacet
facet normal -0.7907614734531527 0.6121244090070241 0
outer loop
vertex 1.51752 -1.30274 5
vertex 1.64153 -1.14254 0
vertex 1.51752 -1.30274 0
endloop
endfacet
facet normal -0.7247960751348165 0.6889634601843303 0
outer loop
vertex 1.51752 -1.30274 0
vertex 1.37793 -1.44959 5
vertex 1.51752 -1.30274 5
endloop
endfacet
facet normal -0.7247960751348158 0.6889634601843313 0
outer loop
vertex 1.37793 -1.44959 5
vertex 1.51752 -1.30274 0
vertex 1.37793 -1.44959 0
endloop
endfacet
facet normal -0.6513602874118013 0.758768591853152 0
outer loop
vertex 1.37793 -1.44959 0
vertex 1.22421 -1.58155 5
vertex 1.37793 -1.44959 5
endloop
endfacet
facet normal -0.6513602874118005 0.7587685918531529 0
outer loop
vertex 1.22421 -1.58155 5
vertex 1.37793 -1.44959 0
vertex 1.22421 -1.58155 0
endloop
endfacet
facet normal -0.5712871824043702 0.8207502392448484 0
outer loop
vertex 1.22421 -1.58155 0
vertex 1.05793 -1.69729 5
vertex 1.22421 -1.58155 5
endloop
endfacet
facet normal -0.5712871824043702 0.8207502392448484 0
outer loop
vertex 1.05793 -1.69729 5
vertex 1.22421 -1.58155 0
vertex 1.05793 -1.69729 0
endloop
endfacet
facet normal -0.48529924215482356 0.8743481260710483 0
outer loop
vertex 1.05793 -1.69729 5
vertex 0.88079 -1.79561 0
vertex 0.88079 -1.79561 5
endloop
endfacet
facet normal -0.48529924215482356 0.8743481260710483 0
outer loop
vertex 0.88079 -1.79561 0
vertex 1.05793 -1.69729 5
vertex 1.05793 -1.69729 0
endloop
endfacet
facet normal -0.394330301820863 0.9189687769809524 0
outer loop
vertex 0.88079 -1.79561 0
vertex 0.69461 -1.8755 5
vertex 0.88079 -1.79561 5
endloop
endfacet
facet normal -0.394330301820863 0.9189687769809524 0
outer loop
vertex 0.69461 -1.8755 5
vertex 0.88079 -1.79561 0
vertex 0.69461 -1.8755 0
endloop
endfacet
facet normal -0.29937091384188974 0.9541368119643386 0
outer loop
vertex 0.69461 -1.8755 0
vertex 0.50131 -1.93615 5
vertex 0.69461 -1.8755 5
endloop
endfacet
facet normal -0.2993709138418895 0.9541368119643387 0
outer loop
vertex 0.50131 -1.93615 5
vertex 0.69461 -1.8755 0
vertex 0.50131 -1.93615 0
endloop
endfacet
facet normal -0.20133398338742908 0.9795226526902533 0
outer loop
vertex 0.50131 -1.93615 5
vertex 0.30286 -1.97694 0
vertex 0.30286 -1.97694 5
endloop
endfacet
facet normal -0.20133398338742908 0.9795226526902533 0
outer loop
vertex 0.30286 -1.97694 0
vertex 0.50131 -1.93615 5
vertex 0.50131 -1.93615 0
endloop
endfacet
facet normal -0.10113584095925206 0.9948726258539153 0
outer loop
vertex 0.30286 -1.97694 0
vertex 0.1013 -1.99743 5
vertex 0.30286 -1.97694 5
endloop
endfacet
facet normal -0.10113584095925206 0.9948726258539153 0
outer loop
vertex 0.1013 -1.99743 5
vertex 0.30286 -1.97694 0
vertex 0.1013 -1.99743 0
endloop
endfacet
facet normal 0 1 0
outer loop
vertex 0.1013 -1.99743 0
vertex -0.1013 -1.99743 5
vertex 0.1013 -1.99743 5
endloop
endfacet
facet normal 0 1 0
outer loop
vertex -0.1013 -1.99743 5
vertex 0.1013 -1.99743 0
vertex -0.1013 -1.99743 0
endloop
endfacet
facet normal 0.10113584095925206 0.9948726258539153 0
outer loop
vertex -0.1013 -1.99743 0
vertex -0.30286 -1.97694 5
vertex -0.1013 -1.99743 5
endloop
endfacet
facet normal 0.10113584095925206 0.9948726258539153 0
outer loop
vertex -0.30286 -1.97694 5
vertex -0.1013 -1.99743 0
vertex -0.30286 -1.97694 0
endloop
endfacet
facet normal 0.20133398338742908 0.9795226526902533 0
outer loop
vertex -0.30286 -1.97694 5
vertex -0.50131 -1.93615 0
vertex -0.50131 -1.93615 5
endloop
endfacet
facet normal 0.20133398338742908 0.9795226526902533 0
outer loop
vertex -0.50131 -1.93615 0
vertex -0.30286 -1.97694 5
vertex -0.30286 -1.97694 0
endloop
endfacet
facet normal 0.2993709138418895 0.9541368119643387 0
outer loop
vertex -0.50131 -1.93615 0
vertex -0.69461 -1.8755 5
vertex -0.50131 -1.93615 5
endloop
endfacet
facet normal 0.29937091384188974 0.9541368119643386 0
outer loop
vertex -0.69461 -1.8755 5
vertex -0.50131 -1.93615 0
vertex -0.69461 -1.8755 0
endloop
endfacet
facet normal 0.394330301820863 0.9189687769809524 0
outer loop
vertex -0.69461 -1.8755 5
vertex -0.88079 -1.79561 0
vertex -0.88079 -1.79561 5
endloop
endfacet
facet normal 0.394330301820863 0.9189687769809524 0
outer loop
vertex -0.88079 -1.79561 0
vertex -0.69461 -1.8755 5
vertex -0.69461 -1.8755 0
endloop
endfacet
facet normal 0.48529924215482356 0.8743481260710483 0
outer loop
vertex -0.88079 -1.79561 0
vertex -1.05793 -1.69729 5
vertex -0.88079 -1.79561 5
endloop
endfacet
facet normal 0.48529924215482356 0.8743481260710483 0
outer loop
vertex -1.05793 -1.69729 5
vertex -0.88079 -1.79561 0
vertex -1.05793 -1.69729 0
endloop
endfacet
facet normal 0.5712871824043702 0.8207502392448484 0
outer loop
vertex -1.05793 -1.69729 0
vertex -1.22421 -1.58155 5
vertex -1.05793 -1.69729 5
endloop
endfacet
facet normal 0.5712871824043702 0.8207502392448484 0
outer loop
vertex -1.22421 -1.58155 5
vertex -1.05793 -1.69729 0
vertex -1.22421 -1.58155 0
endloop
endfacet
facet normal 0.6513602874118013 0.758768591853152 0
outer loop
vertex -1.22421 -1.58155 5
vertex -1.37793 -1.44959 0
vertex -1.37793 -1.44959 5
endloop
endfacet
facet normal 0.6513602874118005 0.7587685918531529 0
outer loop
vertex -1.37793 -1.44959 0
vertex -1.22421 -1.58155 5
vertex -1.22421 -1.58155 0
endloop
endfacet
facet normal 0.7247960751348165 0.6889634601843303 0
outer loop
vertex -1.37793 -1.44959 5
vertex -1.51752 -1.30274 0
vertex -1.51752 -1.30274 5
endloop
endfacet
facet normal 0.7247960751348158 0.6889634601843313 0
outer loop
vertex -1.51752 -1.30274 0
vertex -1.37793 -1.44959 5
vertex -1.37793 -1.44959 0
endloop
endfacet
facet normal 0.7907614734531527 0.6121244090070241 0
outer loop
vertex -1.51752 -1.30274 0
vertex -1.64153 -1.14254 5
vertex -1.51752 -1.30274 5
endloop
endfacet
facet normal 0.7907614734531527 0.6121244090070241 0
outer loop
vertex -1.64153 -1.14254 5
vertex -1.51752 -1.30274 0
vertex -1.64153 -1.14254 0
endloop
endfacet
facet normal 0.8486686769668457 0.5289248308931462 0
outer loop
vertex -1.64153 -1.14254 0
vertex -1.74869 -0.9706 5
vertex -1.64153 -1.14254 5
endloop
endfacet
facet normal 0.8486686769668457 0.5289248308931462 0
outer loop
vertex -1.74869 -0.9706 5
vertex -1.64153 -1.14254 0
vertex -1.74869 -0.9706 0
endloop
endfacet
facet normal 0.8977875689161982 0.44042874690413025 0
outer loop
vertex -1.74869 -0.9706 5
vertex -1.83792 -0.78871 0
vertex -1.83792 -0.78871 5
endloop
endfacet
facet normal 0.8977875689161982 0.44042874690413025 0
outer loop
vertex -1.83792 -0.78871 0
vertex -1.74869 -0.9706 5
vertex -1.74869 -0.9706 0
endloop
endfacet
facet normal 0.9377535240270155 0.3473014946338612 0
outer loop
vertex -1.83792 -0.78871 0
vertex -1.90828 -0.59873 5
vertex -1.83792 -0.78871 5
endloop
endfacet
facet normal 0.9377535240270165 0.347301494633858 0
outer loop
vertex -1.90828 -0.59873 5
vertex -1.83792 -0.78871 0
vertex -1.90828 -0.59873 0
endloop
endfacet
facet normal 0.9680790056333837 0.2506452450214834 0
outer loop
vertex -1.90828 -0.59873 5
vertex -1.95906 -0.4026 0
vertex -1.95906 -0.4026 5
endloop
endfacet
facet normal 0.9680790056333837 0.2506452450214834 0
outer loop
vertex -1.95906 -0.4026 0
vertex -1.90828 -0.59873 5
vertex -1.90828 -0.59873 0
endloop
endfacet
facet normal 0.9884673664942782 0.1514340297815076 0
outer loop
vertex -1.95906 -0.4026 5
vertex -1.98974 -0.20234 0
vertex -1.98974 -0.20234 5
endloop
endfacet
facet normal 0.9884673664942787 0.15143402978150416 0
outer loop
vertex -1.98974 -0.20234 0
vertex -1.95906 -0.4026 5
vertex -1.95906 -0.4026 0
endloop
endfacet
facet normal 0.99871688750154 0.05064166880382547 0
outer loop
vertex -1.98974 -0.20234 0
vertex -2 0 5
vertex -1.98974 -0.20234 5
endloop
endfacet
facet normal 0.99871688750154 0.05064166880382196 0
outer loop
vertex -2 0 5
vertex -1.98974 -0.20234 0
vertex -2 0 0
endloop
endfacet
facet normal 0.99871688750154 -0.05064166880382196 0
outer loop
vertex -2 0 0
vertex -1.98974 0.20234 5
vertex -2 0 5
endloop
endfacet
facet normal 0.99871688750154 -0.05064166880382547 0
outer loop
vertex -1.98974 0.20234 5
vertex -2 0 0
vertex -1.98974 0.20234 0
endloop
endfacet
facet normal 0.9884673664942782 -0.1514340297815076 0
outer loop
vertex -1.98974 0.20234 0
vertex -1.95906 0.4026 5
vertex -1.98974 0.20234 5
endloop
endfacet
facet normal 0.9884673664942787 -0.15143402978150416 0
outer loop
vertex -1.95906 0.4026 5
vertex -1.98974 0.20234 0
vertex -1.95906 0.4026 0
endloop
endfacet
facet normal 0.9680790056333837 -0.2506452450214834 0
outer loop
vertex -1.95906 0.4026 5
vertex -1.90828 0.59873 0
vertex -1.90828 0.59873 5
endloop
endfacet
facet normal 0.9680790056333837 -0.2506452450214834 0
outer loop
vertex -1.90828 0.59873 0
vertex -1.95906 0.4026 5
vertex -1.95906 0.4026 0
endloop
endfacet
facet normal 0.9377535240270155 -0.3473014946338612 0
outer loop
vertex -1.90828 0.59873 5
vertex -1.83792 0.78871 0
vertex -1.83792 0.78871 5
endloop
endfacet
facet normal 0.9377535240270165 -0.347301494633858 0
outer loop
vertex -1.83792 0.78871 0
vertex -1.90828 0.59873 5
vertex -1.90828 0.59873 0
endloop
endfacet
facet normal 0.8977875689161982 -0.44042874690413025 0
outer loop
vertex -1.83792 0.78871 0
vertex -1.74869 0.9706 5
vertex -1.83792 0.78871 5
endloop
endfacet
facet normal 0.8977875689161982 -0.44042874690413025 0
outer loop
vertex -1.74869 0.9706 5
vertex -1.83792 0.78871 0
vertex -1.74869 0.9706 0
endloop
endfacet
facet normal 0.8486686769668457 -0.5289248308931462 0
outer loop
vertex -1.74869 0.9706 0
vertex -1.64153 1.14254 5
vertex -1.74869 0.9706 5
endloop
endfacet
facet normal 0.8486686769668457 -0.5289248308931462 0
outer loop
vertex -1.64153 1.14254 5
vertex -1.74869 0.9706 0
vertex -1.64153 1.14254 0
endloop
endfacet
facet normal 0.7907614734531527 -0.6121244090070241 0
outer loop
vertex -1.64153 1.14254 5
vertex -1.51752 1.30274 0
vertex -1.51752 1.30274 5
endloop
endfacet
facet normal 0.7907614734531527 -0.6121244090070241 0
outer loop
vertex -1.51752 1.30274 0
vertex -1.64153 1.14254 5
vertex -1.64153 1.14254 0
endloop
endfacet
facet normal 0.7247960751348165 -0.6889634601843303 0
outer loop
vertex -1.51752 1.30274 0
vertex -1.37793 1.44959 5
vertex -1.51752 1.30274 5
endloop
endfacet
facet normal 0.7247960751348158 -0.6889634601843313 0
outer loop
vertex -1.37793 1.44959 5
vertex -1.51752 1.30274 0
vertex -1.37793 1.44959 0
endloop
endfacet
facet normal 0.6513602874118013 -0.758768591853152 0
outer loop
vertex -1.37793 1.44959 0
vertex -1.22421 1.58155 5
vertex -1.37793 1.44959 5
endloop
endfacet
facet normal 0.6513602874118005 -0.7587685918531529 0
outer loop
vertex -1.22421 1.58155 5
vertex -1.37793 1.44959 0
vertex -1.22421 1.58155 0
endloop
endfacet
facet normal 0.5712871824043702 -0.8207502392448484 0
outer loop
vertex -1.22421 1.58155 0
vertex -1.05793 1.69729 5
vertex -1.22421 1.58155 5
endloop
endfacet
facet normal 0.5712871824043702 -0.8207502392448484 0
outer loop
vertex -1.05793 1.69729 5
vertex -1.22421 1.58155 0
vertex -1.05793 1.69729 0
endloop
endfacet
facet normal 0.48529924215482356 -0.8743481260710483 0
outer loop
vertex -1.05793 1.69729 0
vertex -0.88079 1.79561 5
vertex -1.05793 1.69729 5
endloop
endfacet
facet normal 0.48529924215482356 -0.8743481260710483 0
outer loop
vertex -0.88079 1.79561 5
vertex -1.05793 1.69729 0
vertex -0.88079 1.79561 0
endloop
endfacet
facet normal 0.394330301820863 -0.9189687769809524 0
outer loop
vertex -0.88079 1.79561 5
vertex -0.69461 1.8755 0
vertex -0.69461 1.8755 5
endloop
endfacet
facet normal 0.394330301820863 -0.9189687769809524 0
outer loop
vertex -0.69461 1.8755 0
vertex -0.88079 1.79561 5
vertex -0.88079 1.79561 0
endloop
endfacet
facet normal 0.29937091384188974 -0.9541368119643386 0
outer loop
vertex -0.69461 1.8755 0
vertex -0.50131 1.93615 5
vertex -0.69461 1.8755 5
endloop
endfacet
facet normal 0.2993709138418895 -0.9541368119643387 0
outer loop
vertex -0.50131 1.93615 5
vertex -0.69461 1.8755 0
vertex -0.50131 1.93615 0
endloop
endfacet
facet normal 0.20133398338742908 -0.9795226526902533 0
outer loop
vertex -0.50131 1.93615 0
vertex -0.30286 1.97694 5
vertex -0.50131 1.93615 5
endloop
endfacet
facet normal 0.20133398338742908 -0.9795226526902533 0
outer loop
vertex -0.30286 1.97694 5
vertex -0.50131 1.93615 0
vertex -0.30286 1.97694 0
endloop
endfacet
facet normal 0.10113584095925206 -0.9948726258539153 0
outer loop
vertex -0.30286 1.97694 5
vertex -0.1013 1.99743 0
vertex -0.1013 1.99743 5
endloop
endfacet
facet normal 0.10113584095925206 -0.9948726258539153 0
outer loop
vertex -0.1013 1.99743 0
vertex -0.30286 1.97694 5
vertex -0.30286 1.97694 0
endloop
endfacet
facet normal 0 -1 0
outer loop
vertex -0.1013 1.99743 5
vertex 0.1013 1.99743 0
vertex 0.1013 1.99743 5
endloop
endfacet
facet normal 0 -1 0
outer loop
vertex 0.1013 1.99743 0
vertex -0.1013 1.99743 5
vertex -0.1013 1.99743 0
endloop
endfacet
facet normal -0.10113584095925206 -0.9948726258539153 0
outer loop
vertex 0.1013 1.99743 0
vertex 0.30286 1.97694 5
vertex 0.1013 1.99743 5
endloop
endfacet
facet normal -0.10113584095925206 -0.9948726258539153 0
outer loop
vertex 0.30286 1.97694 5
vertex 0.1013 1.99743 0
vertex 0.30286 1.97694 0
endloop
endfacet
facet normal -0.20133398338742908 -0.9795226526902533 0
outer loop
vertex 0.30286 1.97694 0
vertex 0.50131 1.93615 5
vertex 0.30286 1.97694 5
endloop
endfacet
facet normal -0.20133398338742908 -0.9795226526902533 0
outer loop
vertex 0.50131 1.93615 5
vertex 0.30286 1.97694 0
vertex 0.50131 1.93615 0
endloop
endfacet
facet normal -0.29937091384188974 -0.9541368119643386 0
outer loop
vertex 0.50131 1.93615 5
vertex 0.69461 1.8755 0
vertex 0.69461 1.8755 5
endloop
endfacet
facet normal -0.2993709138418895 -0.9541368119643387 0
outer loop
vertex 0.69461 1.8755 0
vertex 0.50131 1.93615 5
vertex 0.50131 1.93615 0
endloop
endfacet
facet normal -0.394330301820863 -0.9189687769809524 0
outer loop
vertex 0.69461 1.8755 0
vertex 0.88079 1.79561 5
vertex 0.69461 1.8755 5
endloop
endfacet
facet normal -0.394330301820863 -0.9189687769809524 0
outer loop
vertex 0.88079 1.79561 5
vertex 0.69461 1.8755 0
vertex 0.88079 1.79561 0
endloop
endfacet
facet normal -0.48529924215482356 -0.8743481260710483 0
outer loop
vertex 0.88079 1.79561 0
vertex 1.05793 1.69729 5
vertex 0.88079 1.79561 5
endloop
endfacet
facet normal -0.48529924215482356 -0.8743481260710483 0
outer loop
vertex 1.05793 1.69729 5
vertex 0.88079 1.79561 0
vertex 1.05793 1.69729 0
endloop
endfacet
facet normal -0.5712871824043702 -0.8207502392448484 0
outer loop
vertex 1.05793 1.69729 0
vertex 1.22421 1.58155 5
vertex 1.05793 1.69729 5
endloop
endfacet
facet normal -0.5712871824043702 -0.8207502392448484 0
outer loop
vertex 1.22421 1.58155 5
vertex 1.05793 1.69729 0
vertex 1.22421 1.58155 0
endloop
endfacet
facet normal -0.6513602874118005 -0.7587685918531529 0
outer loop
vertex 1.22421 1.58155 0
vertex 1.37793 1.44959 5
vertex 1.22421 1.58155 5
endloop
endfacet
facet normal -0.6513602874118013 -0.758768591853152 0
outer loop
vertex 1.37793 1.44959 5
vertex 1.22421 1.58155 0
vertex 1.37793 1.44959 0
endloop
endfacet
facet normal -0.7247960751348158 -0.6889634601843313 0
outer loop
vertex 1.37793 1.44959 0
vertex 1.51752 1.30274 5
vertex 1.37793 1.44959 5
endloop
endfacet
facet normal -0.7247960751348165 -0.6889634601843303 0
outer loop
vertex 1.51752 1.30274 5
vertex 1.37793 1.44959 0
vertex 1.51752 1.30274 0
endloop
endfacet
facet normal -0.7907614734531527 -0.6121244090070241 0
outer loop
vertex 1.51752 1.30274 5
vertex 1.64153 1.14254 0
vertex 1.64153 1.14254 5
endloop
endfacet
facet normal -0.7907614734531527 -0.6121244090070241 0
outer loop
vertex 1.64153 1.14254 0
vertex 1.51752 1.30274 5
vertex 1.51752 1.30274 0
endloop
endfacet
facet normal -0.8486686769668457 -0.5289248308931462 0
outer loop
vertex 1.64153 1.14254 0
vertex 1.74869 0.9706 5
vertex 1.64153 1.14254 5
endloop
endfacet
facet normal -0.8486686769668457 -0.5289248308931462 0
outer loop
vertex 1.74869 0.9706 5
vertex 1.64153 1.14254 0
vertex 1.74869 0.9706 0
endloop
endfacet
facet normal -0.8977875689161982 -0.44042874690413025 0
outer loop
vertex 1.74869 0.9706 0
vertex 1.83792 0.78871 5
vertex 1.74869 0.9706 5
endloop
endfacet
facet normal -0.8977875689161982 -0.44042874690413025 0
outer loop
vertex 1.83792 0.78871 5
vertex 1.74869 0.9706 0
vertex 1.83792 0.78871 0
endloop
endfacet
facet normal -0.9377535240270155 -0.3473014946338612 0
outer loop
vertex 1.83792 0.78871 0
vertex 1.90828 0.59873 5
vertex 1.83792 0.78871 5
endloop
endfacet
facet normal -0.9377535240270165 -0.347301494633858 0
outer loop
vertex 1.90828 0.59873 5
vertex 1.83792 0.78871 0
vertex 1.90828 0.59873 0
endloop
endfacet
facet normal -0.9680790056333837 -0.2506452450214834 0
outer loop
vertex 1.90828 0.59873 0
vertex 1.95906 0.4026 5
vertex 1.90828 0.59873 5
endloop
endfacet
facet normal -0.9680790056333837 -0.2506452450214834 0
outer loop
vertex 1.95906 0.4026 5
vertex 1.90828 0.59873 0
vertex 1.95906 0.4026 0
endloop
endfacet
facet normal -0.9884673664942782 -0.1514340297815076 0
outer loop
vertex 1.95906 0.4026 5
vertex 1.98974 0.20234 0
vertex 1.98974 0.20234 5
endloop
endfacet
facet normal -0.9884673664942787 -0.15143402978150416 0
outer loop
vertex 1.98974 0.20234 0
vertex 1.95906 0.4026 5
vertex 1.95906 0.4026 0
endloop
endfacet
facet normal -0.99871688750154 -0.05064166880382547 0
outer loop
vertex 1.98974 0.20234 0
vertex 2 0 5
vertex 1.98974 0.20234 5
endloop
endfacet
facet normal -0.99871688750154 -0.05064166880382196 0
outer loop
vertex 2 0 5
vertex 1.98974 0.20234 0
vertex 2 0 0
endloop
endfacet
facet normal -0.99871688750154 0.05064166880382547 0
outer loop
vertex 2 0 5
vertex 1.98974 -0.20234 0
vertex 1.98974 -0.20234 5
endloop
endfacet
facet normal -0.99871688750154 0.05064166880382196 0
outer loop
vertex 1.98974 -0.20234 0
vertex 2 0 5
vertex 2 0 0
endloop
endfacet
facet normal 0 0 0.9999999999999999
outer loop
vertex 3.8 0 5
vertex 1.98974 0.20234 5
vertex 2 0 5
endloop
endfacet
facet normal 1.2463392332559443e-15 0 1
outer loop
vertex 3.8 0 5
vertex 1.95906 0.4026 5
vertex 1.98974 0.20234 5
endloop
endfacet
facet normal 0 0 1
outer loop
vertex 3.8 0 5
vertex 1.90828 0.59873 5
vertex 1.95906 0.4026 5
endloop
endfacet
facet normal 3.4913535946470866e-16 0 1
outer loop
vertex 1.9 3.2909 5
vertex 1.90828 0.59873 5
vertex 3.8 0 5
endloop
endfacet
facet normal 7.0922623484535914e-15 0 0.9999999999999999
outer loop
vertex 1.9 3.2909 5
vertex 1.83792 0.78871 5
vertex 1.90828 0.59873 5
endloop
endfacet
facet normal 0 0 1
outer loop
vertex 1.8132 3.2909 5
vertex 1.83792 0.78871 5
vertex 1.9 3.2909 5
endloop
endfacet
facet normal -1.3194340453029984e-14 0 1
outer loop
vertex 1.8132 3.2909 5
vertex 1.74869 0.9706 5
vertex 1.83792 0.78871 5
endloop
endfacet
facet normal 7.693995516701886e-15 0 1
outer loop
vertex 1.8132 3.2909 5
vertex 1.64153 1.14254 5
vertex 1.74869 0.9706 5
endloop
endfacet
facet normal 3.021840821918965e-15 0 1
outer loop
vertex 1.8132 3.2909 5
vertex 1.51752 1.30274 5
vertex 1.64153 1.14254 5
endloop
endfacet
facet normal 1.3836802231030003e-15 0 1
outer loop
vertex 1.8132 3.2909 5
vertex 1.37793 1.44959 5
vertex 1.51752 1.30274 5
endloop
endfacet
facet normal 0 0 1
outer loop
vertex 1.23167 3.2909 5
vertex 1.37793 1.44959 5
vertex 1.8132 3.2909 5
endloop
endfacet
facet normal -1.6837779868580284e-15 0 1
outer loop
vertex 1.23167 3.2909 5
vertex 1.22421 1.58155 5
vertex 1.37793 1.44959 5
endloop
endfacet
facet normal -4.673079695805445e-15 0 1
outer loop
vertex 1.23167 3.2909 5
vertex 1.05793 1.69729 5
vertex 1.22421 1.58155 5
endloop
endfacet
facet normal 4.450175279838922e-15 0 1
outer loop
vertex 1.23167 3.2909 5
vertex 0.88079 1.79561 5
vertex 1.05793 1.69729 5
endloop
endfacet
facet normal -4.3477786875347585e-15 0 1
outer loop
vertex 1.23167 3.2909 5
vertex 0.69461 1.8755 5
vertex 0.88079 1.79561 5
endloop
endfacet
facet normal 1.450468439200662e-15 0 1
outer loop
vertex 1.23167 3.2909 5
vertex 0.50131 1.93615 5
vertex 0.69461 1.8755 5
endloop
endfacet
facet normal 0 0 1
outer loop
vertex 0.37236 3.2909 5
vertex 0.50131 1.93615 5
vertex 1.23167 3.2909 5
endloop
endfacet
facet normal -3.369541788506651e-15 0 1
outer loop
vertex 0.37236 3.2909 5
vertex 0.30286 1.97694 5
vertex 0.50131 1.93615 5
endloop
endfacet
facet normal 3.3356830316054783e-15 0 1
outer loop
vertex 0.37236 3.2909 5
vertex 0.1013 1.99743 5
vertex 0.30286 1.97694 5
endloop
endfacet
facet normal 0 0 1
outer loop
vertex 0.02143 3.2909 5
vertex 0.1013 1.99743 5
vertex 0.37236 3.2909 5
endloop
endfacet
facet normal 0 0 1
outer loop
vertex 0.02143 3.2909 5
vertex -0.1013 1.99743 5
vertex 0.1013 1.99743 5
endloop
endfacet
facet normal 0 0 1
outer loop
vertex -0.30244 3.2909 5
vertex -0.1013 1.99743 5
vertex 0.02143 3.2909 5
endloop
endfacet
facet normal -3.353727985295098e-15 0 1
outer loop
vertex -0.30244 3.2909 5
vertex -0.30286 1.97694 5
vertex -0.1013 1.99743 5
endloop
endfacet
facet normal 3.406398896774155e-15 0 1
outer loop
vertex -0.30244 3.2909 5
vertex -0.50131 1.93615 5
vertex -0.30286 1.97694 5
endloop
endfacet
facet normal 0 0 0.9999999999999999
outer loop
vertex -0.61054 3.2909 5
vertex -0.50131 1.93615 5
vertex -0.30244 3.2909 5
endloop
endfacet
facet normal -1.6539760148174332e-15 0 1
outer loop
vertex -0.61054 3.2909 5
vertex -0.69461 1.8755 5
vertex -0.50131 1.93615 5
endloop
endfacet
facet normal 5.187901095114754e-15 0 1
outer loop
vertex -0.61054 3.2909 5
vertex -0.88079 1.79561 5
vertex -0.69461 1.8755 5
endloop
endfacet
facet normal 0 0 0.9999999999999999
outer loop
vertex -0.91121 3.2909 5
vertex -0.88079 1.79561 5
vertex -0.61054 3.2909 5
endloop
endfacet
facet normal -4.973624198115903e-15 0 1
outer loop
vertex -0.91121 3.2909 5
vertex -1.05793 1.69729 5
vertex -0.88079 1.79561 5
endloop
endfacet
facet normal 0 0 1
outer loop
vertex -1.21123 3.2909 5
vertex -1.05793 1.69729 5
vertex -0.91121 3.2909 5
endloop
endfacet
facet normal 4.712181617532101e-15 0 1
outer loop
vertex -1.21123 3.2909 5
vertex -1.22421 1.58155 5
vertex -1.05793 1.69729 5
endloop
endfacet
facet normal 1.701175489915403e-15 0 1
outer loop
vertex -1.21123 3.2909 5
vertex -1.37793 1.44959 5
vertex -1.22421 1.58155 5
endloop
endfacet
facet normal 0 0 1
outer loop
vertex -1.51659 3.2909 5
vertex -1.37793 1.44959 5
vertex -1.21123 3.2909 5
endloop
endfacet
facet normal -1.6009521430437006e-15 0 1
outer loop
vertex -1.51659 3.2909 5
vertex -1.51752 1.30274 5
vertex -1.37793 1.44959 5
endloop
endfacet
facet normal -3.604580190789593e-15 0 1
outer loop
vertex -1.51659 3.2909 5
vertex -1.64153 1.14254 5
vertex -1.51752 1.30274 5
endloop
endfacet
facet normal -9.573819254286054e-15 0 1
outer loop
vertex -1.51659 3.2909 5
vertex -1.74869 0.9706 5
vertex -1.64153 1.14254 5
endloop
endfacet
facet normal 0 0 1
outer loop
vertex -1.8331 3.2909 5
vertex -1.74869 0.9706 5
vertex -1.51659 3.2909 5
endloop
endfacet
facet normal 1.2979593457031361e-14 0 1
outer loop
vertex -1.8331 3.2909 5
vertex -1.83792 0.78871 5
vertex -1.74869 0.9706 5
endloop
endfacet
facet normal 0 0 1
outer loop
vertex -1.9 3.2909 5
vertex -1.83792 0.78871 5
vertex -1.8331 3.2909 5
endloop
endfacet
facet normal -7.0922623484535914e-15 0 0.9999999999999999
outer loop
vertex -1.9 3.2909 5
vertex -1.90828 0.59873 5
vertex -1.83792 0.78871 5
endloop
endfacet
facet normal 1.3149974115228596e-14 0 1
outer loop
vertex -1.9 3.2909 5
vertex -1.95906 0.4026 5
vertex -1.90828 0.59873 5
endloop
endfacet
facet normal 1.156697866760447e-14 0 1
outer loop
vertex -1.9 3.2909 5
vertex -1.98974 0.20234 5
vertex -1.95906 0.4026 5
endloop
endfacet
facet normal -3.610312205880945e-13 0 1
outer loop
vertex -1.9 3.2909 5
vertex -2 0 5
vertex -1.98974 0.20234 5
endloop
endfacet
facet normal 0 0 1
outer loop
vertex -2 0 5
vertex -1.9 3.2909 5
vertex -3.8 0 5
endloop
endfacet
facet normal 0 0 0.9999999999999999
outer loop
vertex 1.98974 -0.20234 5
vertex 3.8 0 5
vertex 2 0 5
endloop
endfacet
facet normal 1.2463392332559445e-15 0 1
outer loop
vertex 1.95906 -0.4026 5
vertex 3.8 0 5
vertex 1.98974 -0.20234 5
endloop
endfacet
facet normal 0 0 1
outer loop
vertex 1.90828 -0.59873 5
vertex 3.8 0 5
vertex 1.95906 -0.4026 5
endloop
endfacet
facet normal 0 0 0.9999999999999999
outer loop
vertex 1.90828 -0.59873 5
vertex 1.9 -3.2909 5
vertex 3.8 0 5
endloop
endfacet
facet normal 0 0 0.9999999999999999
outer loop
vertex 1.83792 -0.78871 5
vertex 1.9 -3.2909 5
vertex 1.90828 -0.59873 5
endloop
endfacet
facet normal -1.514615105653609e-14 0 1
outer loop
vertex 1.74869 -0.9706 5
vertex 1.9 -3.2909 5
vertex 1.83792 -0.78871 5
endloop
endfacet
facet normal 1.2934970472217909e-14 0 1
outer loop
vertex 1.64153 -1.14254 5
vertex 1.9 -3.2909 5
vertex 1.74869 -0.9706 5
endloop
endfacet
facet normal 0 0 1
outer loop
vertex 1.51752 -1.30274 5
vertex 1.9 -3.2909 5
vertex 1.64153 -1.14254 5
endloop
endfacet
facet normal 0 0 1
outer loop
vertex 1.37793 -1.44959 5
vertex 1.9 -3.2909 5
vertex 1.51752 -1.30274 5
endloop
endfacet
facet normal 0 0 0.9999999999999999
outer loop
vertex 1.22421 -1.58155 5
vertex 1.9 -3.2909 5
vertex 1.37793 -1.44959 5
endloop
endfacet
facet normal 0 0 1
outer loop
vertex 1.05793 -1.69729 5
vertex 1.9 -3.2909 5
vertex 1.22421 -1.58155 5
endloop
endfacet
facet normal 4.8656060081027214e-15 0 1
outer loop
vertex 0.88079 -1.79561 5
vertex 1.9 -3.2909 5
vertex 1.05793 -1.69729 5
endloop
endfacet
facet normal -4.936823421686919e-15 0 1
outer loop
vertex 0.69461 -1.8755 5
vertex 1.9 -3.2909 5
vertex 0.88079 -1.79561 5
endloop
endfacet
facet normal 0 0 1
outer loop
vertex 0.50131 -1.93615 5
vertex 1.9 -3.2909 5
vertex 0.69461 -1.8755 5
endloop
endfacet
facet normal -5.450574129115085e-15 0 1
outer loop
vertex 0.30286 -1.97694 5
vertex 1.9 -3.2909 5
vertex 0.50131 -1.93615 5
endloop
endfacet
facet normal 0 0 1
outer loop
vertex 0.1013 -1.99743 5
vertex 1.9 -3.2909 5
vertex 0.30286 -1.97694 5
endloop
endfacet
facet normal 0 0 1
outer loop
vertex -0.1013 -1.99743 5
vertex 1.9 -3.2909 5
vertex 0.1013 -1.99743 5
endloop
endfacet
facet normal -8.085184291621924e-15 0 1
outer loop
vertex -0.30286 -1.97694 5
vertex 1.9 -3.2909 5
vertex -0.1013 -1.99743 5
endloop
endfacet
facet normal 0 0 1
outer loop
vertex -0.50131 -1.93615 5
vertex 1.9 -3.2909 5
vertex -0.30286 -1.97694 5
endloop
endfacet
facet normal 0 0 1
outer loop
vertex -0.69461 -1.8755 5
vertex 1.9 -3.2909 5
vertex -0.50131 -1.93615 5
endloop
endfacet
facet normal 3.158766301150445e-14 0 1
outer loop
vertex -0.88079 -1.79561 5
vertex 1.9 -3.2909 5
vertex -0.69461 -1.8755 5
endloop
endfacet
facet normal 0 0 1
outer loop
vertex -0.88079 -1.79561 5
vertex -1.9 -3.2909 5
vertex 1.9 -3.2909 5
endloop
endfacet
facet normal -4.8656060081027214e-15 0 1
outer loop
vertex -1.05793 -1.69729 5
vertex -1.9 -3.2909 5
vertex -0.88079 -1.79561 5
endloop
endfacet
facet normal 4.901015988580976e-15 0 1
outer loop
vertex -1.22421 -1.58155 5
vertex -1.9 -3.2909 5
vertex -1.05793 -1.69729 5
endloop
endfacet
facet normal 0 0 0.9999999999999999
outer loop
vertex -1.37793 -1.44959 5
vertex -1.9 -3.2909 5
vertex -1.22421 -1.58155 5
endloop
endfacet
facet normal 0 0 1
outer loop
vertex -1.51752 -1.30274 5
vertex -1.9 -3.2909 5
vertex -1.37793 -1.44959 5
endloop
endfacet
facet normal 0 0 1
outer loop
vertex -1.64153 -1.14254 5
vertex -1.9 -3.2909 5
vertex -1.51752 -1.30274 5
endloop
endfacet
facet normal -1.2934970472217914e-14 0 1
outer loop
vertex -1.74869 -0.9706 5
vertex -1.9 -3.2909 5
vertex -1.64153 -1.14254 5
endloop
endfacet
facet normal 1.5146151056536086e-14 0 1
outer loop
vertex -1.83792 -0.78871 5
vertex -1.9 -3.2909 5
vertex -1.74869 -0.9706 5
endloop
endfacet
facet normal 0 0 1
outer loop
vertex -1.90828 -0.59873 5
vertex -1.9 -3.2909 5
vertex -1.83792 -0.78871 5
endloop
endfacet
facet normal 0 0 1
outer loop
vertex -1.95906 -0.4026 5
vertex -1.9 -3.2909 5
vertex -1.90828 -0.59873 5
endloop
endfacet
facet normal 0 0 1
outer loop
vertex -1.98974 -0.20234 5
vertex -1.9 -3.2909 5
vertex -1.95906 -0.4026 5
endloop
endfacet
facet normal -2.6256816042770523e-13 0 1
outer loop
vertex -2 0 5
vertex -1.9 -3.2909 5
vertex -1.98974 -0.20234 5
endloop
endfacet
facet normal 0 0 1
outer loop
vertex -1.9 -3.2909 5
vertex -2 0 5
vertex -3.8 0 5
endloop
endfacet
facet normal 0 0 -0.9999999999999999
outer loop
vertex 3.8 0 0
vertex 1.98974 -0.20234 0
vertex 2 0 0
endloop
endfacet
facet normal 0 0 -1
outer loop
vertex 3.8 0 0
vertex 1.95906 -0.4026 0
vertex 1.98974 -0.20234 0
endloop
endfacet
facet normal 0 0 -1
outer loop
vertex 3.8 0 0
vertex 1.90828 -0.59873 0
vertex 1.95906 -0.4026 0
endloop
endfacet
facet normal 0 0 -1
outer loop
vertex 1.9 -3.2909 0
vertex 1.90828 -0.59873 0
vertex 3.8 0 0
endloop
endfacet
facet normal 0 0 -0.9999999999999999
outer loop
vertex 1.9 -3.2909 0
vertex 1.83792 -0.78871 0
vertex 1.90828 -0.59873 0
endloop
endfacet
facet normal 0 0 -0.9999999999999999
outer loop
vertex 1.9 -3.2909 0
vertex 1.74869 -0.9706 0
vertex 1.83792 -0.78871 0
endloop
endfacet
facet normal 0 0 -1
outer loop
vertex 1.9 -3.2909 0
vertex 1.64153 -1.14254 0
vertex 1.74869 -0.9706 0
endloop
endfacet
facet normal 0 0 -1
outer loop
vertex 1.9 -3.2909 0
vertex 1.51752 -1.30274 0
vertex 1.64153 -1.14254 0
endloop
endfacet
facet normal 0 0 -1
outer loop
vertex 1.9 -3.2909 0
vertex 1.37793 -1.44959 0
vertex 1.51752 -1.30274 0
endloop
endfacet
facet normal 0 0 -0.9999999999999999
outer loop
vertex 1.9 -3.2909 0
vertex 1.22421 -1.58155 0
vertex 1.37793 -1.44959 0
endloop
endfacet
facet normal 0 0 -1
outer loop
vertex 1.9 -3.2909 0
vertex 1.05793 -1.69729 0
vertex 1.22421 -1.58155 0
endloop
endfacet
facet normal 0 0 -1
outer loop
vertex 1.9 -3.2909 0
vertex 0.88079 -1.79561 0
vertex 1.05793 -1.69729 0
endloop
endfacet
facet normal 0 0 -1
outer loop
vertex 1.9 -3.2909 0
vertex 0.69461 -1.8755 0
vertex 0.88079 -1.79561 0
endloop
endfacet
facet normal 0 0 -1
outer loop
vertex 1.9 -3.2909 0
vertex 0.50131 -1.93615 0
vertex 0.69461 -1.8755 0
endloop
endfacet
facet normal 0 0 -1
outer loop
vertex 1.9 -3.2909 0
vertex 0.30286 -1.97694 0
vertex 0.50131 -1.93615 0
endloop
endfacet
facet normal 0 0 -1
outer loop
vertex 1.9 -3.2909 0
vertex 0.1013 -1.99743 0
vertex 0.30286 -1.97694 0
endloop
endfacet
facet normal 0 0 -1
outer loop
vertex 1.9 -3.2909 0
vertex -0.1013 -1.99743 0
vertex 0.1013 -1.99743 0
endloop
endfacet
facet normal 0 0 -1
outer loop
vertex 1.9 -3.2909 0
vertex -0.30286 -1.97694 0
vertex -0.1013 -1.99743 0
endloop
endfacet
facet normal 0 0 -0.9999999999999999
outer loop
vertex 1.9 -3.2909 0
vertex -0.50131 -1.93615 0
vertex -0.30286 -1.97694 0
endloop
endfacet
facet normal 0 0 -1
outer loop
vertex 1.9 -3.2909 0
vertex -0.69461 -1.8755 0
vertex -0.50131 -1.93615 0
endloop
endfacet
facet normal 0 0 -1
outer loop
vertex 1.9 -3.2909 0
vertex -0.88079 -1.79561 0
vertex -0.69461 -1.8755 0
endloop
endfacet
facet normal 0 0 -1
outer loop
vertex -1.9 -3.2909 0
vertex -0.88079 -1.79561 0
vertex 1.9 -3.2909 0
endloop
endfacet
facet normal 0 0 -1
outer loop
vertex -1.9 -3.2909 0
vertex -1.05793 -1.69729 0
vertex -0.88079 -1.79561 0
endloop
endfacet
facet normal 0 0 -1
outer loop
vertex -1.9 -3.2909 0
vertex -1.22421 -1.58155 0
vertex -1.05793 -1.69729 0
endloop
endfacet
facet normal 0 0 -0.9999999999999999
outer loop
vertex -1.9 -3.2909 0
vertex -1.37793 -1.44959 0
vertex -1.22421 -1.58155 0
endloop
endfacet
facet normal 0 0 -1
outer loop
vertex -1.9 -3.2909 0
vertex -1.51752 -1.30274 0
vertex -1.37793 -1.44959 0
endloop
endfacet
facet normal 0 0 -1
outer loop
vertex -1.9 -3.2909 0
vertex -1.64153 -1.14254 0
vertex -1.51752 -1.30274 0
endloop
endfacet
facet normal 0 0 -1
outer loop
vertex -1.9 -3.2909 0
vertex -1.74869 -0.9706 0
vertex -1.64153 -1.14254 0
endloop
endfacet
facet normal 0 0 -0.9999999999999999
outer loop
vertex -1.9 -3.2909 0
vertex -1.83792 -0.78871 0
vertex -1.74869 -0.9706 0
endloop
endfacet
facet normal 0 0 -0.9999999999999999
outer loop
vertex -1.9 -3.2909 0
vertex -1.90828 -0.59873 0
vertex -1.83792 -0.78871 0
endloop
endfacet
facet normal 0 0 -1
outer loop
vertex -1.9 -3.2909 0
vertex -1.95906 -0.4026 0
vertex -1.90828 -0.59873 0
endloop
endfacet
facet normal 0 0 -1
outer loop
vertex -1.9 -3.2909 0
vertex -1.98974 -0.20234 0
vertex -1.95906 -0.4026 0
endloop
endfacet
facet normal 0 0 -1
outer loop
vertex -1.9 -3.2909 0
vertex -2 0 0
vertex -1.98974 -0.20234 0
endloop
endfacet
facet normal 0 0 -1
outer loop
vertex -2 0 0
vertex -1.9 -3.2909 0
vertex -3.8 0 0
endloop
endfacet
facet normal 0 0 -0.9999999999999999
outer loop
vertex 1.98974 0.20234 0
vertex 3.8 0 0
vertex 2 0 0
endloop
endfacet
facet normal 0 0 -1
outer loop
vertex 1.95906 0.4026 0
vertex 3.8 0 0
vertex 1.98974 0.20234 0
endloop
endfacet
facet normal 0 0 -1
outer loop
vertex 1.90828 0.59873 0
vertex 3.8 0 0
vertex 1.95906 0.4026 0
endloop
endfacet
facet normal 0 0 -0.9999999999999999
outer loop
vertex 1.90828 0.59873 0
vertex 1.9 3.2909 0
vertex 3.8 0 0
endloop
endfacet
facet normal 0 0 -0.9999999999999999
outer loop
vertex 1.83792 0.78871 0
vertex 1.9 3.2909 0
vertex 1.90828 0.59873 0
endloop
endfacet
facet normal 0 0 -1
outer loop
vertex 1.83792 0.78871 0
vertex 1.8132 3.2909 0
vertex 1.9 3.2909 0
endloop
endfacet
facet normal 0 0 -1
outer loop
vertex 1.74869 0.9706 0
vertex 1.8132 3.2909 0
vertex 1.83792 0.78871 0
endloop
endfacet
facet normal 0 0 -1
outer loop
vertex 1.64153 1.14254 0
vertex 1.8132 3.2909 0
vertex 1.74869 0.9706 0
endloop
endfacet
facet normal 0 0 -1
outer loop
vertex 1.51752 1.30274 0
vertex 1.8132 3.2909 0
vertex 1.64153 1.14254 0
endloop
endfacet
facet normal 0 0 -1
outer loop
vertex 1.37793 1.44959 0
vertex 1.8132 3.2909 0
vertex 1.51752 1.30274 0
endloop
endfacet
facet normal 0 0 -1
outer loop
vertex 1.37793 1.44959 0
vertex 1.23167 3.2909 0
vertex 1.8132 3.2909 0
endloop
endfacet
facet normal 0 0 -1
outer loop
vertex 1.22421 1.58155 0
vertex 1.23167 3.2909 0
vertex 1.37793 1.44959 0
endloop
endfacet
facet normal 0 0 -1
outer loop
vertex 1.05793 1.69729 0
vertex 1.23167 3.2909 0
vertex 1.22421 1.58155 0
endloop
endfacet
facet normal 0 0 -1
outer loop
vertex 0.88079 1.79561 0
vertex 1.23167 3.2909 0
vertex 1.05793 1.69729 0
endloop
endfacet
facet normal 0 0 -1
outer loop
vertex 0.69461 1.8755 0
vertex 1.23167 3.2909 0
vertex 0.88079 1.79561 0
endloop
endfacet
facet normal 0 0 -1
outer loop
vertex 0.50131 1.93615 0
vertex 1.23167 3.2909 0
vertex 0.69461 1.8755 0
endloop
endfacet
facet normal 0 0 -1
outer loop
vertex 0.50131 1.93615 0
vertex 0.37236 3.2909 0
vertex 1.23167 3.2909 0
endloop
endfacet
facet normal 0 0 -1
outer loop
vertex 0.30286 1.97694 0
vertex 0.37236 3.2909 0
vertex 0.50131 1.93615 0
endloop
endfacet
facet normal 0 0 -1
outer loop
vertex 0.1013 1.99743 0
vertex 0.37236 3.2909 0
vertex 0.30286 1.97694 0
endloop
endfacet
facet normal 0 0 -1
outer loop
vertex 0.1013 1.99743 0
vertex 0.02143 3.2909 0
vertex 0.37236 3.2909 0
endloop
endfacet
facet normal 0 0 -1
outer loop
vertex -0.1013 1.99743 0
vertex 0.02143 3.2909 0
vertex 0.1013 1.99743 0
endloop
endfacet
facet normal 0 0 -1
outer loop
vertex -0.1013 1.99743 0
vertex -0.30244 3.2909 0
vertex 0.02143 3.2909 0
endloop
endfacet
facet normal 0 0 -1
outer loop
vertex -0.30286 1.97694 0
vertex -0.30244 3.2909 0
vertex -0.1013 1.99743 0
endloop
endfacet
facet normal 0 0 -0.9999999999999999
outer loop
vertex -0.50131 1.93615 0
vertex -0.30244 3.2909 0
vertex -0.30286 1.97694 0
endloop
endfacet
facet normal 0 0 -0.9999999999999999
outer loop
vertex -0.50131 1.93615 0
vertex -0.61054 3.2909 0
vertex -0.30244 3.2909 0
endloop
endfacet
facet normal 0 0 -1
outer loop
vertex -0.69461 1.8755 0
vertex -0.61054 3.2909 0
vertex -0.50131 1.93615 0
endloop
endfacet
facet normal 0 0 -1
outer loop
vertex -0.88079 1.79561 0
vertex -0.61054 3.2909 0
vertex -0.69461 1.8755 0
endloop
endfacet
facet normal 0 0 -1
outer loop
vertex -1.05793 1.69729 0
vertex -0.61054 3.2909 0
vertex -0.88079 1.79561 0
endloop
endfacet
facet normal 0 0 -0.9999999999999999
outer loop
vertex -1.22421 1.58155 0
vertex -0.61054 3.2909 0
vertex -1.05793 1.69729 0
endloop
endfacet
facet normal 0 0 -1
outer loop
vertex -1.37793 1.44959 0
vertex -0.61054 3.2909 0
vertex -1.22421 1.58155 0
endloop
endfacet
facet normal 0 0 -1
outer loop
vertex -1.51752 1.30274 0
vertex -0.61054 3.2909 0
vertex -1.37793 1.44959 0
endloop
endfacet
facet normal 0 0 -0.9999999999999999
outer loop
vertex -1.64153 1.14254 0
vertex -0.61054 3.2909 0
vertex -1.51752 1.30274 0
endloop
endfacet
facet normal 0 0 -1
outer loop
vertex -1.74869 0.9706 0
vertex -0.61054 3.2909 0
vertex -1.64153 1.14254 0
endloop
endfacet
facet normal 0 0 -0.9999999999999999
outer loop
vertex -1.83792 0.78871 0
vertex -0.61054 3.2909 0
vertex -1.74869 0.9706 0
endloop
endfacet
facet normal 0 0 -1
outer loop
vertex -1.83792 0.78871 0
vertex -1.9 3.2909 0
vertex -0.61054 3.2909 0
endloop
endfacet
facet normal 0 0 -1
outer loop
vertex -1.90828 0.59873 0
vertex -1.9 3.2909 0
vertex -1.83792 0.78871 0
endloop
endfacet
facet normal 0 0 -1
outer loop
vertex -1.95906 0.4026 0
vertex -1.9 3.2909 0
vertex -1.90828 0.59873 0
endloop
endfacet
facet normal 0 0 -1
outer loop
vertex -1.98974 0.20234 0
vertex -1.9 3.2909 0
vertex -1.95906 0.4026 0
endloop
endfacet
facet normal 0 0 -1
outer loop
vertex -2 0 0
vertex -1.9 3.2909 0
vertex -1.98974 0.20234 0
endloop
endfacet
facet normal 0 0 -1
outer loop
vertex -1.9 3.2909 0
vertex -2 0 0
vertex -3.8 0 0
endloop
endfacet
facet normal 0 -1 0
outer loop
vertex -1.9 -3.2909 0
vertex 1.9 -3.2909 5
vertex -1.9 -3.2909 5
endloop
endfacet
facet normal 0 -1 0
outer loop
vertex 1.9 -3.2909 5
vertex -1.9 -3.2909 0
vertex 1.9 -3.2909 0
endloop
endfacet
facet normal 0.8660256317854271 0.4999996050904957 0
outer loop
vertex 3.8 0 0
vertex 1.9 3.2909 5
vertex 3.8 0 5
endloop
endfacet
facet normal 0.8660256317854274 0.49999960509049546 0
outer loop
vertex 1.9 3.2909 5
vertex 3.8 0 0
vertex 1.9 3.2909 0
endloop
endfacet
facet normal 0.8660256317854271 -0.4999996050904957 0
outer loop
vertex 1.9 -3.2909 5
vertex 3.8 0 0
vertex 3.8 0 5
endloop
endfacet
facet normal 0.8660256317854274 -0.49999960509049546 0
outer loop
vertex 3.8 0 0
vertex 1.9 -3.2909 5
vertex 1.9 -3.2909 0
endloop
endfacet
facet normal -0.8660256317854271 -0.4999996050904957 0
outer loop
vertex -3.8 0 0
vertex -1.9 -3.2909 5
vertex -3.8 0 5
endloop
endfacet
facet normal -0.8660256317854274 -0.49999960509049546 0
outer loop
vertex -1.9 -3.2909 5
vertex -3.8 0 0
vertex -1.9 -3.2909 0
endloop
endfacet
facet normal -0.8660256317854274 0.49999960509049546 0
outer loop
vertex -1.9 3.2909 0
vertex -3.8 0 5
vertex -1.9 3.2909 5
endloop
endfacet
facet normal -0.8660256317854271 0.4999996050904957 0
outer loop
vertex -3.8 0 5
vertex -1.9 3.2909 0
vertex -3.8 0 0
endloop
endfacet
facet normal 0 1 0
outer loop
vertex 0.37236 3.2909 0
vertex 0.02143 3.2909 5
vertex 0.37236 3.2909 5
endloop
endfacet
facet normal 0 0.9999999999999999 0
outer loop
vertex 0.02143 3.2909 5
vertex 0.37236 3.2909 0
vertex 0.02143 3.2909 0
endloop
endfacet
facet normal 0 0.9999999999999999 0
outer loop
vertex 0.37236 3.2909 0
vertex 0.76694 3.2909 5
vertex 0.76694 3.2909 0
endloop
endfacet
facet normal 0 0.9999999999999999 0
outer loop
vertex 0.76694 3.2909 5
vertex 0.37236 3.2909 0
vertex 0.37236 3.2909 5
endloop
endfacet
facet normal 0 1 0
outer loop
vertex 1.8132 3.2909 0
vertex 1.9 3.2909 5
vertex 1.9 3.2909 0
endloop
endfacet
facet normal 0 1 0
outer loop
vertex 1.9 3.2909 5
vertex 1.8132 3.2909 0
vertex 1.8132 3.2909 5
endloop
endfacet
facet normal 0 1 0
outer loop
vertex 1.23167 3.2909 0
vertex 1.8132 3.2909 5
vertex 1.8132 3.2909 0
endloop
endfacet
facet normal 0 1 0
outer loop
vertex 1.8132 3.2909 5
vertex 1.23167 3.2909 0
vertex 1.23167 3.2909 5
endloop
endfacet
facet normal 0 1 0
outer loop
vertex 0.76694 3.2909 0
vertex 1.23167 3.2909 5
vertex 1.23167 3.2909 0
endloop
endfacet
facet normal 0 1 0
outer loop
vertex 1.23167 3.2909 5
vertex 0.76694 3.2909 0
vertex 0.76694 3.2909 5
endloop
endfacet
facet normal 0 1 0
outer loop
vertex -1.21123 3.2909 0
vertex -1.51659 3.2909 5
vertex -1.21123 3.2909 5
endloop
endfacet
facet normal 0 1 0
outer loop
vertex -1.51659 3.2909 5
vertex -1.21123 3.2909 0
vertex -1.51659 3.2909 0
endloop
endfacet
facet normal 0 0.9999999999999999 0
outer loop
vertex -0.91121 3.2909 0
vertex -1.21123 3.2909 5
vertex -0.91121 3.2909 5
endloop
endfacet
facet normal 0 1 0
outer loop
vertex -1.21123 3.2909 5
vertex -0.91121 3.2909 0
vertex -1.21123 3.2909 0
endloop
endfacet
facet normal 0 1 0
outer loop
vertex -1.51659 3.2909 0
vertex -1.8331 3.2909 5
vertex -1.51659 3.2909 5
endloop
endfacet
facet normal 0 1 0
outer loop
vertex -1.8331 3.2909 5
vertex -1.51659 3.2909 0
vertex -1.8331 3.2909 0
endloop
endfacet
facet normal 0 1 0
outer loop
vertex -1.9 3.2909 0
vertex -1.8331 3.2909 5
vertex -1.8331 3.2909 0
endloop
endfacet
facet normal 0 1 0
outer loop
vertex -1.8331 3.2909 5
vertex -1.9 3.2909 0
vertex -1.9 3.2909 5
endloop
endfacet
facet normal 0 1 0
outer loop
vertex -0.91121 3.2909 0
vertex -0.61054 3.2909 5
vertex -0.61054 3.2909 0
endloop
endfacet
facet normal 0 1 0
outer loop
vertex -0.61054 3.2909 5
vertex -0.91121 3.2909 0
vertex -0.91121 3.2909 5
endloop
endfacet
facet normal 0 1 0
outer loop
vertex -0.61054 3.2909 0
vertex -0.30244 3.2909 5
vertex -0.30244 3.2909 0
endloop
endfacet
facet normal 0 1 0
outer loop
vertex -0.30244 3.2909 5
vertex -0.61054 3.2909 0
vertex -0.61054 3.2909 5
endloop
endfacet
facet normal 0 1 0
outer loop
vertex -0.30244 3.2909 0
vertex 0.02143 3.2909 5
vertex 0.02143 3.2909 0
endloop
endfacet
facet normal 0 1 0
outer loop
vertex 0.02143 3.2909 5
vertex -0.30244 3.2909 0
vertex -0.30244 3.2909 5
endloop
endfacet
endsolid JSxCAD
