<?xml version="1.0" encoding="UTF-8"?>
<!-- Generated by jsxcad -->
<!DOCTYPE svg PUBLIC "-//W3C//DTD SVG 1.1 Tiny//EN" "http://www.w3.org/Graphics/SVG/1.1/DTD/svg11-tiny.dtd">
<svg viewBox="-250 -250 500 500" width="500" height="500" xmlns="http://www.w3.org/2000/svg"><path d="M4.570554312622381,22.265546123933838L11.732214075333271,18.422897866564057L-65.22507282891306,-131.7433156316817z" style="fill:rgb(169,53,222)"/><path d="M11.732214075333271,18.422897866564057L19.13489478514706,15.085951981050004L-56.774501567993084,-135.64674787939765z" style="fill:rgb(157,47,222)"/><path d="M-2.2894756736069457,26.581901391509383L4.570554312622381,22.265546123933838L-73.45103491187493,-127.36189538497167z" style="fill:rgb(180,60,222)"/><path d="M19.13489478514706,15.085951981050004L26.715664449527306,12.283803045608082L-48.168984954446756,-139.03919590168167z" style="fill:rgb(145,43,221)"/><path d="M-8.789015397819222,31.33559194222543L-2.2894756736069457,26.581901391509383L-81.38492941999786,-122.53787552093763z" style="fill:rgb(190,67,220)"/><path d="M26.715664449527306,12.283803045608082L34.410565409232106,10.042122928743549L-39.47904691981477,-141.89067834697013z" style="fill:rgb(133,39,219)"/><path d="M-14.870062089301546,36.4880068516382L-8.789015397819222,31.33559194222543L-88.96067314136171,-117.3106169897813z" style="fill:rgb(200,75,217)"/><path d="M34.410565409232106,10.042122928743549L42.153966616375115,8.382735200853519L-30.776768268636324,-144.1745466905323z" style="fill:rgb(121,35,215)"/><path d="M-20.479168536040657,41.99744014826687L-14.870062089301546,36.4880068516382L-96.1127000236629,-111.72144274770646z" style="fill:rgb(210,83,214)"/><path d="M42.153966616375115,8.382735200853519L49.87913182540766,7.323968999155075L-22.135361123780882,-145.86714108152842z" style="fill:rgb(109,33,211)"/><path d="M-25.562916145344353,47.81786473156884L-20.479168536040657,41.99744014826687L-102.77986208171903,-105.81426688085331z" style="fill:rgb(218,92,209)"/><path d="M49.87913182540766,7.323968999155075L57.51870497598838,6.879766703053585L-13.62856453229649,-146.94876431573783z" style="fill:rgb(97,32,207)"/><path d="M-30.072942936356096,53.9014818016678L-25.562916145344353,47.81786473156884L-108.90030348320228,-99.63721985975893z" style="fill:rgb(225,101,204)"/><path d="M57.51870497598838,6.879766703053585L65.00422285264773,7.060137454936465L-5.331375020824277,-147.40314322716574z" style="fill:rgb(85,32,201)"/><path d="M-33.962766704745455,60.19717133910254L-30.072942936356096,53.9014818016678L-114.41713098218669,-93.23977890205916z" style="fill:rgb(232,110,198)"/><path d="M65.00422285264773,7.060137454936465L72.26753410397623,7.870745651216305L2.681524644088636,-147.21798973911459z" style="fill:rgb(74,32,194)"/><path d="M-37.18998606767679,66.65083589216798L-33.962766704745455,60.19717133910254L-119.274794415303,-86.67465429125632z" style="fill:rgb(237,120,191)"/><path d="M72.26753410397623,7.870745651216305L79.24030964670844,9.311439840259123L10.335248968562196,-146.38641988523977z" style="fill:rgb(64,34,187)"/><path d="M-39.716746964426065,73.20552800078053L-37.18998606767679,66.65083589216798L-123.42146767943223,-79.99735158120083z" style="fill:rgb(241,129,183)"/><path d="M79.24030964670844,9.311439840259123L85.8534950911279,11.378584690664265L17.553842543768134,-144.90469380327932z" style="fill:rgb(54,37,179)"/><path d="M-41.509600768163466,79.80248464111646L-39.716746964426065,73.20552800078053L-126.80958890966279,-73.26603004231801z" style="fill:rgb(244,139,175)"/><path d="M85.8534950911279,11.378584690664265L92.04129089256489,14.06206401290947L24.26492223096056,-142.77550591597674z" style="fill:rgb(44,40,171)"/><path d="M-42.539398799593,86.37995085873872L-41.509600768163466,79.80248464111646L-129.3957609173737,-66.54063821700136z" style="fill:rgb(246,149,167)"/><path d="M92.04129089256489,14.06206401290947L97.73674661917046,17.34611978715245L30.394629601325967,-140.00686803607746z" style="fill:rgb(36,45,162)"/><path d="M-42.78444149782927,92.87474930377925L-42.539398799593,86.37995085873872L-131.1406430972797,-59.884075069045615z" style="fill:rgb(247,158,158)"/><path d="M-65.22507282891306,-131.7433156316817L-73.45103491187493,-127.36189538497167L4.570554312622381,22.265546123933838z" style="fill:rgb(169,53,222)"/><path d="M-56.774501567993084,-135.64674787939765L-65.22507282891306,-131.7433156316817L11.732214075333271,18.422897866564057z" style="fill:rgb(157,47,222)"/><path d="M97.73674661917046,17.34611978715245L102.87744744083376,21.2091788932368L35.874019452137205,-136.6128733516244z" style="fill:rgb(29,50,153)"/><path d="M-73.45103491187493,-127.36189538497167L-81.38492941999786,-122.53787552093763L-2.2894756736069457,26.581901391509383z" style="fill:rgb(180,60,222)"/><path d="M-48.168984954446756,-139.03919590168167L-56.774501567993084,-135.64674787939765L19.13489478514706,15.085951981050004z" style="fill:rgb(145,43,221)"/><path d="M-42.22874285263041,99.2220922225897L-42.78444149782927,92.87474930377925L-132.01250995898124,-53.360512368259286z" style="fill:rgb(246,167,149)"/><path d="M-81.38492941999786,-122.53787552093763L-88.96067314136171,-117.3106169897813L-8.789015397819222,31.33559194222543z" style="fill:rgb(190,67,220)"/><path d="M-39.47904691981477,-141.89067834697013L-48.168984954446756,-139.03919590168167L26.715664449527306,12.283803045608082z" style="fill:rgb(133,39,219)"/><path d="M-88.96067314136171,-117.3106169897813L-96.1127000236629,-111.72144274770646L-14.870062089301546,36.4880068516382z" style="fill:rgb(200,75,217)"/><path d="M-30.776768268636324,-144.1745466905323L-39.47904691981477,-141.89067834697013L34.410565409232106,10.042122928743549z" style="fill:rgb(121,35,215)"/><path d="M-96.1127000236629,-111.72144274770646L-102.77986208171903,-105.81426688085331L-20.479168536040657,41.99744014826687z" style="fill:rgb(210,83,214)"/><path d="M-22.135361123780882,-145.86714108152842L-30.776768268636324,-144.1745466905323L42.153966616375115,8.382735200853519z" style="fill:rgb(109,33,211)"/><path d="M102.87744744083376,21.2091788932368L107.40254056045161,25.62376088773851L40.63569714895393,-132.61360016508613z" style="fill:rgb(22,56,144)"/><path d="M-40.86265740780966,105.35603311700513L-42.22874285263041,99.2220922225897L-131.98545155530093,-47.03574500409234z" style="fill:rgb(244,175,139)"/><path d="M-102.77986208171903,-105.81426688085331L-108.90030348320228,-99.63721985975893L-25.562916145344353,47.81786473156884z" style="fill:rgb(218,92,209)"/><path d="M-13.62856453229649,-146.94876431573783L-22.135361123780882,-145.86714108152842L49.87913182540766,7.323968999155075z" style="fill:rgb(97,32,207)"/><path d="M-108.90030348320228,-99.63721985975893L-114.41713098218669,-93.23977890205916L-30.072942936356096,53.9014818016678z" style="fill:rgb(225,101,204)"/><path d="M107.40254056045161,25.62376088773851L111.25541009247979,30.555584446795702L44.61694487488614,-128.03628653389762z" style="fill:rgb(17,63,134)"/><path d="M-5.331375020824277,-147.40314322716574L-13.62856453229649,-146.94876431573783L57.51870497598838,6.879766703053585z" style="fill:rgb(85,32,201)"/><path d="M-38.68594898753481,111.21065777663786L-40.86265740780966,105.35603311700513L-131.0401979334073,-40.97669130837847z" style="fill:rgb(241,183,129)"/><path d="M-114.41713098218669,-93.23977890205916L-119.274794415303,-86.67465429125632L-33.962766704745455,60.19717133910254z" style="fill:rgb(232,110,198)"/><path d="M2.681524644088636,-147.21798973911459L-5.331375020824277,-147.40314322716574L65.00422285264773,7.060137454936465z" style="fill:rgb(74,32,194)"/><path d="M111.25541009247979,30.555584446795702L114.38461860098248,35.963467542464315L47.760817989664346,-122.9156901898397z" style="fill:rgb(13,71,125)"/><path d="M-35.705867060875576,116.72085255653255L-38.68594898753481,111.21065777663786L-129.16766245827455,-35.2500391716555z" style="fill:rgb(237,191,120)"/><path d="M-119.274794415303,-86.67465429125632L-123.42146767943223,-79.99735158120083L-37.18998606767679,66.65083589216798z" style="fill:rgb(237,120,191)"/><path d="M-114.41713098218669,-93.23977890205916L-37.36987841173788,-189.93183622443817L-176.58451387722135,-98.70187770580984z" style="fill:rgb(83,212,212)"/><path d="M10.335248968562196,-146.38641988523977L2.681524644088636,-147.21798973911459L72.26753410397623,7.870745651216305z" style="fill:rgb(64,34,187)"/><path d="M-73.45103491187493,-127.36189538497167L-65.22507282891306,-131.7433156316817L-37.36987841173788,-189.93183622443817zM-65.22507282891306,-131.7433156316817L-56.774501567993084,-135.64674787939765L-37.36987841173788,-189.93183622443817z" style="fill:rgb(83,212,212)"/><path d="M-123.42146767943223,-79.99735158120083L-126.80958890966279,-73.26603004231801L-39.716746964426065,73.20552800078053z" style="fill:rgb(241,129,183)"/><path d="M-81.38492941999786,-122.53787552093763L-73.45103491187493,-127.36189538497167L-37.36987841173788,-189.93183622443817zM-56.774501567993084,-135.64674787939765L-48.168984954446756,-139.03919590168167L-37.36987841173788,-189.93183622443817zM-88.96067314136171,-117.3106169897813L-81.38492941999786,-122.53787552093763L-37.36987841173788,-189.93183622443817z" style="fill:rgb(83,212,212)"/><path d="M17.553842543768134,-144.90469380327932L10.335248968562196,-146.38641988523977L79.24030964670844,9.311439840259123z" style="fill:rgb(54,37,179)"/><path d="M-48.168984954446756,-139.03919590168167L-39.47904691981477,-141.89067834697013L-37.36987841173788,-189.93183622443817zM-96.1127000236629,-111.72144274770646L-88.96067314136171,-117.3106169897813L-37.36987841173788,-189.93183622443817zM-102.77986208171903,-105.81426688085331L-96.1127000236629,-111.72144274770646L-37.36987841173788,-189.93183622443817z" style="fill:rgb(83,212,212)"/><path d="M-126.80958890966279,-73.26603004231801L-129.3957609173737,-66.54063821700136L-41.509600768163466,79.80248464111646z" style="fill:rgb(244,139,175)"/><path d="M-108.90030348320228,-99.63721985975893L-102.77986208171903,-105.81426688085331L-37.36987841173788,-189.93183622443817z" style="fill:rgb(83,212,212)"/><path d="M24.26492223096056,-142.77550591597674L17.553842543768134,-144.90469380327932L85.8534950911279,11.378584690664265z" style="fill:rgb(44,40,171)"/><path d="M-114.41713098218669,-93.23977890205916L-108.90030348320228,-99.63721985975893L-37.36987841173788,-189.93183622443817z" style="fill:rgb(83,212,212)"/><path d="M-129.3957609173737,-66.54063821700136L-131.1406430972797,-59.884075069045615L-42.539398799593,86.37995085873872z" style="fill:rgb(246,149,167)"/><path d="M30.394629601325967,-140.00686803607746L24.26492223096056,-142.77550591597674L92.04129089256489,14.06206401290947z" style="fill:rgb(36,45,162)"/><path d="M107.43123605933796,-182.38465262935648L-37.36987841173788,-189.93183622443817L-39.47904691981477,-141.89067834697013z" style="fill:rgb(83,212,212)"/><path d="M-131.1406430972797,-59.884075069045615L-132.01250995898124,-53.360512368259286L-42.78444149782927,92.87474930377925z" style="fill:rgb(247,158,158)"/><path d="M-119.274794415303,-86.67465429125632L-114.41713098218669,-93.23977890205916L-176.58451387722135,-98.70187770580984z" style="fill:rgb(83,212,212)"/><path d="M35.874019452137205,-136.6128733516244L30.394629601325967,-140.00686803607746L97.73674661917046,17.34611978715245z" style="fill:rgb(29,50,153)"/><path d="M-123.42146767943223,-79.99735158120083L-119.274794415303,-86.67465429125632L-176.58451387722135,-98.70187770580984z" style="fill:rgb(83,212,212)"/><path d="M-132.01250995898124,-53.360512368259286L-131.98545155530093,-47.03574500409234L-42.22874285263041,99.2220922225897z" style="fill:rgb(246,167,149)"/><path d="M-126.80958890966279,-73.26603004231801L-123.42146767943223,-79.99735158120083L-176.58451387722135,-98.70187770580984z" style="fill:rgb(83,212,212)"/><path d="M40.63569714895393,-132.61360016508613L35.874019452137205,-136.6128733516244L102.87744744083376,21.2091788932368z" style="fill:rgb(22,56,144)"/><path d="M-129.3957609173737,-66.54063821700136L-126.80958890966279,-73.26603004231801L-176.58451387722135,-98.70187770580984z" style="fill:rgb(83,212,212)"/><path d="M-131.98545155530093,-47.03574500409234L-131.0401979334073,-40.97669130837847L-40.86265740780966,105.35603311700513z" style="fill:rgb(244,175,139)"/><path d="M44.61694487488614,-128.03628653389762L40.63569714895393,-132.61360016508613L107.40254056045161,25.62376088773851z" style="fill:rgb(17,63,134)"/><path d="M-131.1406430972797,-59.884075069045615L-129.3957609173737,-66.54063821700136L-176.58451387722135,-98.70187770580984zM107.43123605933796,-182.38465262935648L-39.47904691981477,-141.89067834697013L-30.776768268636324,-144.1745466905323zM107.43123605933796,-182.38465262935648L-30.776768268636324,-144.1745466905323L-22.135361123780882,-145.86714108152842z" style="fill:rgb(83,212,212)"/><path d="M-131.0401979334073,-40.97669130837847L-129.16766245827455,-35.2500391716555L-38.68594898753481,111.21065777663786z" style="fill:rgb(241,183,129)"/><path d="M107.43123605933796,-182.38465262935648L-22.135361123780882,-145.86714108152842L-13.62856453229649,-146.94876431573783zM-132.01250995898124,-53.360512368259286L-131.1406430972797,-59.884075069045615L-176.58451387722135,-98.70187770580984z" style="fill:rgb(83,212,212)"/><path d="M47.760817989664346,-122.9156901898397L44.61694487488614,-128.03628653389762L111.25541009247979,30.555584446795702z" style="fill:rgb(13,71,125)"/><path d="M107.43123605933796,-182.38465262935648L-13.62856453229649,-146.94876431573783L-5.331375020824277,-147.40314322716574zM-131.98545155530093,-47.03574500409234L-132.01250995898124,-53.360512368259286L-176.58451387722135,-98.70187770580984zM107.43123605933796,-182.38465262935648L-5.331375020824277,-147.40314322716574L2.681524644088636,-147.21798973911459z" style="fill:rgb(83,212,212)"/><path d="M-129.16766245827455,-35.2500391716555L-126.3671128195303,-29.921616836109823L-35.705867060875576,116.72085255653255z" style="fill:rgb(237,191,120)"/><path d="M107.43123605933796,-182.38465262935648L2.681524644088636,-147.21798973911459L10.335248968562196,-146.38641988523977zM-131.0401979334073,-40.97669130837847L-131.98545155530093,-47.03574500409234L-176.58451387722135,-98.70187770580984zM107.43123605933796,-182.38465262935648L10.335248968562196,-146.38641988523977L17.553842543768134,-144.90469380327932zM-129.16766245827455,-35.2500391716555L-131.0401979334073,-40.97669130837847L-176.58451387722135,-98.70187770580984z" style="fill:rgb(83,212,212)"/><path d="M122.62617510403263,-60.92667104778553L184.15454618805836,103.1458747712473L164.36657530458734,-19.808648746269938z" style="fill:rgb(247,158,158)"/><path d="M107.43123605933796,-182.38465262935648L17.553842543768134,-144.90469380327932L24.26492223096056,-142.77550591597674zM-126.3671128195303,-29.921616836109823L-129.16766245827455,-35.2500391716555L-176.58451387722135,-98.70187770580984zM107.43123605933796,-182.38465262935648L24.26492223096056,-142.77550591597674L30.394629601325967,-140.00686803607746z" style="fill:rgb(83,212,212)"/><path d="M164.36657530458734,-19.808648746269938L107.43123605933796,-182.38465262935648L122.62617510403263,-60.92667104778553z" style="fill:rgb(247,158,158)"/><path d="M107.43123605933796,-182.38465262935648L30.394629601325967,-140.00686803607746L35.874019452137205,-136.6128733516244zM-126.3671128195303,-29.921616836109823L-176.58451387722135,-98.70187770580984L-199.62987155575772,24.28901286909087zM107.43123605933796,-182.38465262935648L35.874019452137205,-136.6128733516244L40.63569714895393,-132.61360016508613z" style="fill:rgb(83,212,212)"/><path d="M-97.42935313545934,165.60315253018166L40.89266412790403,208.05442217444L-48.25482979547107,57.99794670974961z" style="fill:rgb(67,34,190)"/><path d="M40.89266412790403,208.05442217444L184.15454618805836,103.1458747712473L122.62617510403263,-60.92667104778553z" style="fill:rgb(187,64,221)"/><path d="M-122.64743473029962,-25.056676459411488L-126.3671128195303,-29.921616836109823L-199.62987155575772,24.28901286909087z" style="fill:rgb(83,212,212)"/><path d="M-48.25482979547107,57.99794670974961L-199.62987155575772,24.28901286909087L-97.42935313545934,165.60315253018166z" style="fill:rgb(67,34,190)"/><path d="M-118.02887851725723,-20.71764123962652L-122.64743473029962,-25.056676459411488L-199.62987155575772,24.28901286909087zM122.62617510403263,-60.92667104778553L107.43123605933796,-182.38465262935648L40.63569714895393,-132.61360016508613zM-112.54368284255617,-16.962957751227673L-118.02887851725723,-20.71764123962652L-199.62987155575772,24.28901286909087zM-106.23433427801632,-13.846772150501359L-112.54368284255617,-16.962957751227673L-199.62987155575772,24.28901286909087zM122.62617510403263,-60.92667104778553L40.63569714895393,-132.61360016508613L44.61694487488614,-128.03628653389762zM-99.1579677688931,-11.417502001172316L-106.23433427801632,-13.846772150501359L-199.62987155575772,24.28901286909087zM122.62617510403263,-60.92667104778553L44.61694487488614,-128.03628653389762L47.760817989664346,-122.9156901898397zM-91.38075407452602,-9.716584037563928L-99.1579677688931,-11.417502001172316L-199.62987155575772,24.28901286909087zM122.62617510403263,-60.92667104778553L47.760817989664346,-122.9156901898397L50.016509796299985,-117.29302566985479zM-82.98342955666315,-8.775800567315375L-91.38075407452602,-9.716584037563928L-199.62987155575772,24.28901286909087zM-74.05615792361579,-8.619593765042264L-82.98342955666315,-8.775800567315375L-199.62987155575772,24.28901286909087zM122.62617510403263,-60.92667104778553L50.016509796299985,-117.29302566985479L51.339725607242755,-111.21712926996702zM-64.69911194887295,-9.26084626917771L-74.05615792361579,-8.619593765042264L-199.62987155575772,24.28901286909087zM122.62617510403263,-60.92667104778553L51.339725607242755,-111.21712926996702L51.69706755744945,-104.74471202222853zM-55.021934314576804,-10.701605871592225L-64.69911194887295,-9.26084626917771L-199.62987155575772,24.28901286909087zM-45.140731618295455,-12.932798276673122L-55.021934314576804,-10.701605871592225L-199.62987155575772,24.28901286909087zM122.62617510403263,-60.92667104778553L51.69706755744945,-104.74471202222853L51.06433553813521,-97.93929169076895zM122.62617510403263,-60.92667104778553L51.06433553813521,-97.93929169076895L49.42765114277411,-90.87084786813675zM122.62617510403263,-60.92667104778553L49.42765114277411,-90.87084786813675L46.78750213517164,-83.61609320448017zM122.62617510403263,-60.92667104778553L46.78750213517164,-83.61609320448017L43.156467918604164,-76.25605705051915zM122.62617510403263,-60.92667104778553L43.156467918604164,-76.25605705051915L38.560542927162196,-68.87664540055978z" style="fill:rgb(83,212,212)"/><path d="M122.62617510403263,-60.92667104778553L-48.25482979547107,57.99794670974961L40.89266412790403,208.05442217444z" style="fill:rgb(187,64,221)"/><path d="M-45.140731618295455,-12.932798276673122L-199.62987155575772,24.28901286909087L-48.25482979547107,57.99794670974961zM-48.25482979547107,57.99794670974961L38.560542927162196,-68.87664540055978L33.040438318321016,-61.566555543077165zM-48.25482979547107,57.99794670974961L33.040438318321016,-61.566555543077165L26.651588924650333,-54.415816024349446zM-48.25482979547107,57.99794670974961L26.651588924650333,-54.415816024349446L19.461409679253965,-47.51379138092973zM-48.25482979547107,57.99794670974961L19.461409679253965,-47.51379138092973L11.553174727822496,-40.94967065380754zM-48.25482979547107,57.99794670974961L-35.177115460095536,-15.933113296898174L-45.140731618295455,-12.932798276673122zM-48.25482979547107,57.99794670974961L11.553174727822496,-40.94967065380754L3.0187345205494287,-34.80750946757547zM-48.25482979547107,57.99794670974961L-25.255630787201685,-19.66996638256888L-35.177115460095536,-15.933113296898174zM-48.25482979547107,57.99794670974961L3.0187345205494287,-34.80750946757547L-6.03670739797563,-29.166271149882235zM-48.25482979547107,57.99794670974961L-15.50099003322027,-24.099227385970476L-25.255630787201685,-19.66996638256888zM-48.25482979547107,57.99794670974961L-6.03670739797563,-29.166271149882235L-15.50099003322027,-24.099227385970476zM-48.25482979547107,57.99794670974961L122.62617510403263,-60.92667104778553L38.560542927162196,-68.87664540055978z" style="fill:rgb(83,212,212)"/></svg>
