<?xml version="1.0" encoding="UTF-8"?>
<!-- Generated by jsxcad -->
<!DOCTYPE svg PUBLIC "-//W3C//DTD SVG 1.1 Tiny//EN" "http://www.w3.org/Graphics/SVG/1.1/DTD/svg11-tiny.dtd">
<svg viewBox="-250 -250 500 500" width="500" height="500" xmlns="http://www.w3.org/2000/svg"><path d="M-65.22491395786862,-131.74332708992895L4.570490198968293,22.265689473486244L11.732356026404686,18.422905191090987z" style="fill:rgb(169,53,222)"/><path d="M-56.77437185132665,-135.64678554288915L11.732356026404686,18.422905191090987L19.13500655919167,15.085926077663906z" style="fill:rgb(157,47,222)"/><path d="M-73.45111493144066,-127.36174592798285L-2.289623473731798,26.58184532737311L4.570490198968293,22.265689473486244z" style="fill:rgb(180,60,222)"/><path d="M-48.16884589245584,-139.0392068215253L19.13500655919167,15.085926077663906L26.715793343598317,12.283809929137773z" style="fill:rgb(145,43,221)"/><path d="M-2.289623473731798,26.58184532737311L-88.96053122022046,-117.3105668953549L-8.78888155931395,31.335650514702337z" style="fill:rgb(190,67,220)"/><path d="M-39.479046919814756,-141.89067834697008L26.715793343598317,12.283809929137773L34.4105654092321,10.042122928743547z" style="fill:rgb(133,39,219)"/><path d="M-8.78888155931395,31.335650514702337L-96.11291552677409,-111.72127351538711L-14.870251402886678,36.48816253942443z" style="fill:rgb(200,75,217)"/><path d="M-30.776914695249946,-144.17445936211146L34.4105654092321,10.042122928743547L42.1538416116026,8.382806718229862z" style="fill:rgb(121,35,215)"/><path d="M-14.870251402886678,36.48816253942443L-102.77966656071561,-105.81443584141238L-20.47900131405326,41.997283773170466z" style="fill:rgb(210,83,214)"/><path d="M-22.135489167401836,-145.86710360405235L42.1538416116026,8.382806718229862L49.879014736492145,7.324000737619755z" style="fill:rgb(109,33,211)"/><path d="M-20.47900131405326,41.997283773170466L-108.90035037885991,-99.6372563849432L-25.562970013033492,47.817818177903824z" style="fill:rgb(218,92,209)"/><path d="M-13.628728517277823,-146.94867640604983L49.879014736492145,7.324000737619755L57.51855987739077,6.879846507577029z" style="fill:rgb(97,32,207)"/><path d="M-25.562970013033492,47.817818177903824L-114.41707304583626,-93.23973603364892L-30.07288917406488,53.90152406911621z" style="fill:rgb(225,101,204)"/><path d="M-5.331300538645269,-147.40304379313804L57.51855987739077,6.879846507577029L65.00429505654867,7.060247659471551z" style="fill:rgb(85,32,201)"/><path d="M-30.07288917406488,53.90152406911621L-119.27476854686783,-86.67461514299885L-33.96273455650124,60.1972184896202z" style="fill:rgb(232,110,198)"/><path d="M2.68169793977389,-147.21813799682423L65.00429505654867,7.060247659471551L72.26767629763962,7.870612976266608z" style="fill:rgb(74,32,194)"/><path d="M-33.96273455650124,60.1972184896202L-123.42165113644742,-79.9973128821882L-37.19014765889131,66.65085657592627z" style="fill:rgb(237,120,191)"/><path d="M79.24017698365054,9.311565864294414L2.68169793977389,-147.21813799682423L72.26767629763962,7.870612976266608z" style="fill:rgb(64,34,187)"/><path d="M-37.19014765889131,66.65085657592627L-126.80978424276779,-73.26582361746064L-39.71691556005547,73.20572215358621z" style="fill:rgb(241,129,183)"/><path d="M85.85369512473743,11.378645463517543L10.335091085792019,-146.3862937300476L79.24017698365054,9.311565864294414z" style="fill:rgb(54,37,179)"/><path d="M-39.71691556005547,73.20572215358621L-129.395636395658,-66.54053650397724L-41.50947914269387,79.80259125253251z" style="fill:rgb(244,139,175)"/><path d="M92.0411086420293,14.061992609538004L17.554068111565478,-144.904651037779L85.85369512473743,11.378645463517543z" style="fill:rgb(44,40,171)"/><path d="M-41.50947914269387,79.80259125253251L-131.14078331389751,-59.88398483285508L-42.539518300990125,86.38003107876543z" style="fill:rgb(246,149,167)"/><path d="M97.73679264696106,17.34604572420632L24.2647211896158,-142.7755493184522L92.0411086420293,14.061992609538004z" style="fill:rgb(36,45,162)"/><path d="M164.36644154875918,-19.808612190203384L107.66593007193094,-180.5073045156665L164.67794825425668,-17.873036404609483zM-131.14078331389751,-59.88398483285508L-42.78455799850923,92.87473220773106L-42.539518300990125,86.38003107876543z" style="fill:rgb(247,158,158)"/><path d="M102.87739182363397,21.209252389572605L30.39469411550922,-140.00694145809615L97.73679264696106,17.34604572420632z" style="fill:rgb(29,50,153)"/><path d="M4.570490198968293,22.265689473486244L-65.22491395786862,-131.74332708992895L-73.45111493144066,-127.36174592798285z" style="fill:rgb(169,53,222)"/><path d="M11.732356026404686,18.422905191090987L-56.77437185132665,-135.64678554288915L-65.22491395786862,-131.74332708992895z" style="fill:rgb(157,47,222)"/><path d="M-2.289623473731798,26.58184532737311L-73.45111493144066,-127.36174592798285L-81.38508248676135,-122.53792386340469z" style="fill:rgb(180,60,222)"/><path d="M19.13500655919167,15.085926077663906L-48.16884589245584,-139.0392068215253L-56.77437185132665,-135.64678554288915z" style="fill:rgb(145,43,221)"/><path d="M-132.012636520682,-53.36053067716732L-42.22860844592572,99.22191243808936L-42.78455799850923,92.87473220773106z" style="fill:rgb(246,167,149)"/><path d="M-88.96053122022046,-117.3105668953549L-2.289623473731798,26.58184532737311L-81.38508248676135,-122.53792386340469z" style="fill:rgb(190,67,220)"/><path d="M164.67794825425668,-17.873036404609483L108.7912350876135,-171.51236928603663L166.1679960386891,-8.614462318357567z" style="fill:rgb(247,158,158)"/><path d="M26.715793343598317,12.283809929137773L-39.479046919814756,-141.89067834697008L-48.16884589245584,-139.0392068215253z" style="fill:rgb(133,39,219)"/><path d="M-96.11291552677409,-111.72127351538711L-8.78888155931395,31.335650514702337L-88.96053122022046,-117.3105668953549z" style="fill:rgb(200,75,217)"/><path d="M34.4105654092321,10.042122928743547L-30.776914695249946,-144.17445936211146L-39.479046919814756,-141.89067834697008z" style="fill:rgb(121,35,215)"/><path d="M107.4025145003965,25.623822307205423L35.87395457529049,-136.61279850347347L102.87739182363397,21.209252389572605z" style="fill:rgb(22,56,144)"/><path d="M-102.77966656071561,-105.81443584141238L-14.870251402886678,36.48816253942443L-96.11291552677409,-111.72127351538711z" style="fill:rgb(210,83,214)"/><path d="M42.1538416116026,8.382806718229862L-22.135489167401836,-145.86710360405235L-30.776914695249946,-144.17445936211146z" style="fill:rgb(109,33,211)"/><path d="M-131.98528605176784,-47.03593115018982L-40.86281909560893,105.35590258440357L-42.22860844592572,99.22191243808936z" style="fill:rgb(244,175,139)"/><path d="M-108.90035037885991,-99.6372563849432L-20.47900131405326,41.997283773170466L-102.77966656071561,-105.81443584141238z" style="fill:rgb(218,92,209)"/><path d="M49.879014736492145,7.324000737619755L-13.628728517277823,-146.94867640604983L-22.135489167401836,-145.86710360405235z" style="fill:rgb(97,32,207)"/><path d="M111.25558561921923,30.555527064776367L40.63565845057841,-132.61353699748167L107.4025145003965,25.623822307205423z" style="fill:rgb(17,63,134)"/><path d="M166.1679960386891,-8.614462318357567L109.89940293865602,-162.6544170821715L167.63131370344138,0.47801515571624364z" style="fill:rgb(247,158,158)"/><path d="M-114.41707304583626,-93.23973603364892L-25.562970013033492,47.817818177903824L-108.90035037885991,-99.6372563849432z" style="fill:rgb(225,101,204)"/><path d="M57.51855987739077,6.879846507577029L-5.331300538645269,-147.40304379313804L-13.628728517277823,-146.94867640604983z" style="fill:rgb(85,32,201)"/><path d="M-131.04035691089572,-40.97680521124296L-38.686118313030484,111.21071605777597L-40.86281909560893,105.35590258440357z" style="fill:rgb(241,183,129)"/><path d="M-119.27476854686783,-86.67461514299885L-30.07288917406488,53.90152406911621L-114.41707304583626,-93.23973603364892z" style="fill:rgb(232,110,198)"/><path d="M114.38480303723628,35.96358128393523L44.61714250402579,-128.0363604825129L111.25558561921923,30.555527064776367z" style="fill:rgb(13,71,125)"/><path d="M65.00429505654867,7.060247659471551L2.68169793977389,-147.21813799682423L-5.331300538645269,-147.40304379313804z" style="fill:rgb(74,32,194)"/><path d="M-123.42165113644742,-79.9973128821882L-33.96273455650124,60.1972184896202L-119.27476854686783,-86.67461514299885z" style="fill:rgb(237,120,191)"/><path d="M-129.16785809713775,-35.24997032093197L-35.705829682408655,116.72078602975323L-38.686118313030484,111.21071605777597z" style="fill:rgb(237,191,120)"/><path d="M167.63131370344138,0.47801515571624364L111.0103930480135,-153.77390563402133L169.09435131070214,9.56874927204145z" style="fill:rgb(247,158,158)"/><path d="M-176.58438178415292,-98.70191336975249L-114.41707304583626,-93.23973603364892L-37.36987841173787,-189.93183622443811z" style="fill:rgb(83,212,212)"/><path d="M2.68169793977389,-147.21813799682423L79.24017698365054,9.311565864294414L10.335091085792019,-146.3862937300476z" style="fill:rgb(64,34,187)"/><path d="M-126.80978424276779,-73.26582361746064L-37.19014765889131,66.65085657592627L-123.42165113644742,-79.9973128821882z" style="fill:rgb(241,129,183)"/><path d="M-37.36987841173787,-189.93183622443811L-73.45111493144066,-127.36174592798285L-65.22491395786862,-131.74332708992895zM-37.36987841173787,-189.93183622443811L-65.22491395786862,-131.74332708992895L-56.77437185132665,-135.64678554288915zM-37.36987841173787,-189.93183622443811L-81.38508248676135,-122.53792386340469L-73.45111493144066,-127.36174592798285zM-37.36987841173787,-189.93183622443811L-56.77437185132665,-135.64678554288915L-48.16884589245584,-139.0392068215253zM-37.36987841173787,-189.93183622443811L-88.96053122022046,-117.3105668953549L-81.38508248676135,-122.53792386340469zM-37.36987841173787,-189.93183622443811L-48.16884589245584,-139.0392068215253L-39.479046919814756,-141.89067834697008zM-37.36987841173787,-189.93183622443811L-96.11291552677409,-111.72127351538711L-88.96053122022046,-117.3105668953549z" style="fill:rgb(83,212,212)"/><path d="M10.335091085792019,-146.3862937300476L85.85369512473743,11.378645463517543L17.554068111565478,-144.904651037779z" style="fill:rgb(54,37,179)"/><path d="M-37.36987841173787,-189.93183622443811L-39.479046919814756,-141.89067834697008L-30.776914695249946,-144.17445936211146z" style="fill:rgb(83,212,212)"/><path d="M169.09435131070214,9.56874927204145L112.14657062357183,-144.69207438608234L170.58642293926096,18.839893125593804z" style="fill:rgb(247,158,158)"/><path d="M-37.36987841173787,-189.93183622443811L-102.77966656071561,-105.81443584141238L-96.11291552677409,-111.72127351538711z" style="fill:rgb(83,212,212)"/><path d="M-129.395636395658,-66.54053650397724L-39.71691556005547,73.20572215358621L-126.80978424276779,-73.26582361746064z" style="fill:rgb(244,139,175)"/><path d="M-37.36987841173787,-189.93183622443811L-108.90035037885991,-99.6372563849432L-102.77966656071561,-105.81443584141238z" style="fill:rgb(83,212,212)"/><path d="M17.554068111565478,-144.904651037779L92.0411086420293,14.061992609538004L24.2647211896158,-142.7755493184522z" style="fill:rgb(44,40,171)"/><path d="M-37.36987841173787,-189.93183622443811L-114.41707304583626,-93.23973603364892L-108.90035037885991,-99.6372563849432z" style="fill:rgb(83,212,212)"/><path d="M-131.14078331389751,-59.88398483285508L-41.50947914269387,79.80259125253251L-129.395636395658,-66.54053650397724z" style="fill:rgb(246,149,167)"/><path d="M170.58642293926096,18.839893125593804L113.33516195659084,-135.19125873821346L172.1428738176216,28.51106224759527z" style="fill:rgb(247,158,158)"/><path d="M24.2647211896158,-142.7755493184522L97.73679264696106,17.34604572420632L30.39469411550922,-140.00694145809615z" style="fill:rgb(36,45,162)"/><path d="M107.66593007193094,-180.5073045156665L164.36644154875918,-19.808612190203384L107.43107165377933,-182.38461126412602z" style="fill:rgb(247,158,158)"/><path d="M-37.36987841173787,-189.93183622443811L-30.776914695249946,-144.17445936211146L107.43107165377933,-182.38461126412602z" style="fill:rgb(83,212,212)"/><path d="M-42.78455799850923,92.87473220773106L-131.14078331389751,-59.88398483285508L-132.012636520682,-53.36053067716732z" style="fill:rgb(247,158,158)"/><path d="M-114.41707304583626,-93.23973603364892L-176.58438178415292,-98.70191336975249L-119.27476854686783,-86.67461514299885z" style="fill:rgb(83,212,212)"/><path d="M108.7912350876135,-171.51236928603663L164.67794825425668,-17.873036404609483L107.66593007193094,-180.5073045156665z" style="fill:rgb(247,158,158)"/><path d="M30.39469411550922,-140.00694145809615L102.87739182363397,21.209252389572605L35.87395457529049,-136.61279850347347z" style="fill:rgb(29,50,153)"/><path d="M-119.27476854686783,-86.67461514299885L-176.58438178415292,-98.70191336975249L-123.42165113644742,-79.9973128821882z" style="fill:rgb(83,212,212)"/><path d="M172.1428738176216,28.51106224759527L114.6121011385936,-124.9842736701825L173.80996107703885,38.86968338874504z" style="fill:rgb(247,158,158)"/><path d="M-42.22860844592572,99.22191243808936L-132.012636520682,-53.36053067716732L-131.98528605176784,-47.03593115018982z" style="fill:rgb(246,167,149)"/><path d="M-123.42165113644742,-79.9973128821882L-176.58438178415292,-98.70191336975249L-126.80978424276779,-73.26582361746064z" style="fill:rgb(83,212,212)"/><path d="M35.87395457529049,-136.61279850347347L107.4025145003965,25.623822307205423L40.63565845057841,-132.61353699748167z" style="fill:rgb(22,56,144)"/><path d="M109.89940293865602,-162.6544170821715L166.1679960386891,-8.614462318357567L108.7912350876135,-171.51236928603663z" style="fill:rgb(247,158,158)"/><path d="M-126.80978424276779,-73.26582361746064L-176.58438178415292,-98.70191336975249L-129.395636395658,-66.54053650397724z" style="fill:rgb(83,212,212)"/><path d="M-40.86281909560893,105.35590258440357L-131.98528605176784,-47.03593115018982L-131.04035691089572,-40.97680521124296z" style="fill:rgb(244,175,139)"/><path d="M173.80996107703885,38.86968338874504L116.0286267675566,-113.66150353381755L175.65319095899025,50.322790451699206z" style="fill:rgb(247,158,158)"/><path d="M-129.395636395658,-66.54053650397724L-176.58438178415292,-98.70191336975249L-131.14078331389751,-59.88398483285508z" style="fill:rgb(83,212,212)"/><path d="M40.63565845057841,-132.61353699748167L111.25558561921923,30.555527064776367L44.61714250402579,-128.0363604825129z" style="fill:rgb(17,63,134)"/><path d="M107.43107165377933,-182.38461126412602L-30.776914695249946,-144.17445936211146L-22.135489167401836,-145.86710360405235z" style="fill:rgb(83,212,212)"/><path d="M-38.686118313030484,111.21071605777597L-131.04035691089572,-40.97680521124296L-129.16785809713775,-35.24997032093197z" style="fill:rgb(241,183,129)"/><path d="M107.43107165377933,-182.38461126412602L-22.135489167401836,-145.86710360405235L-13.628728517277823,-146.94867640604983zM-131.14078331389751,-59.88398483285508L-176.58438178415292,-98.70191336975249L-132.012636520682,-53.36053067716732z" style="fill:rgb(83,212,212)"/><path d="M111.0103930480135,-153.77390563402133L167.63131370344138,0.47801515571624364L109.89940293865602,-162.6544170821715z" style="fill:rgb(247,158,158)"/><path d="M107.43107165377933,-182.38461126412602L-13.628728517277823,-146.94867640604983L-5.331300538645269,-147.40304379313804z" style="fill:rgb(83,212,212)"/><path d="M44.61714250402579,-128.0363604825129L114.38480303723628,35.96358128393523L47.76102606782859,-122.91558680604943z" style="fill:rgb(13,71,125)"/><path d="M-176.58438178415292,-98.70191336975249L-131.98528605176784,-47.03593115018982L-132.012636520682,-53.36053067716732zM107.43107165377933,-182.38461126412602L-5.331300538645269,-147.40304379313804L2.68169793977389,-147.21813799682423z" style="fill:rgb(83,212,212)"/><path d="M-35.705829682408655,116.72078602975323L-129.16785809713775,-35.24997032093197L-126.36707151497986,-29.9216865718521z" style="fill:rgb(237,191,120)"/><path d="M175.65319095899025,50.322790451699206L117.66370478079058,-100.59178410711542L177.77287945878018,63.49369414302489z" style="fill:rgb(247,158,158)"/><path d="M107.43107165377933,-182.38461126412602L2.68169793977389,-147.21813799682423L10.335091085792019,-146.3862937300476zM-176.58438178415292,-98.70191336975249L-131.04035691089572,-40.97680521124296L-131.98528605176784,-47.03593115018982z" style="fill:rgb(83,212,212)"/><path d="M112.14657062357183,-144.69207438608234L169.09435131070214,9.56874927204145L111.0103930480135,-153.77390563402133z" style="fill:rgb(247,158,158)"/><path d="M107.43107165377933,-182.38461126412602L10.335091085792019,-146.3862937300476L17.554068111565478,-144.904651037779zM-176.58438178415292,-98.70191336975249L-129.16785809713775,-35.24997032093197L-131.04035691089572,-40.97680521124296zM107.43107165377933,-182.38461126412602L17.554068111565478,-144.904651037779L24.2647211896158,-142.7755493184522zM-176.58438178415292,-98.70191336975249L-126.36707151497986,-29.9216865718521L-129.16785809713775,-35.24997032093197z" style="fill:rgb(83,212,212)"/><path d="M113.33516195659084,-135.19125873821346L170.58642293926096,18.839893125593804L112.14657062357183,-144.69207438608234z" style="fill:rgb(247,158,158)"/><path d="M107.43107165377933,-182.38461126412602L24.2647211896158,-142.7755493184522L30.39469411550922,-140.00694145809615z" style="fill:rgb(83,212,212)"/><path d="M177.77287945878018,63.49369414302489L119.64962109115865,-84.71770449211698L180.33603448059168,79.42012694311798z" style="fill:rgb(247,158,158)"/><path d="M107.43107165377933,-182.38461126412602L30.39469411550922,-140.00694145809615L35.87395457529049,-136.61279850347347zM-199.62972174613276,24.28897000185524L-126.36707151497986,-29.9216865718521L-176.58438178415292,-98.70191336975249zM107.43107165377933,-182.38461126412602L35.87395457529049,-136.61279850347347L40.63565845057841,-132.61353699748167z" style="fill:rgb(83,212,212)"/><path d="M114.6121011385936,-124.9842736701825L172.1428738176216,28.51106224759527L113.33516195659084,-135.19125873821346z" style="fill:rgb(247,158,158)"/><path d="M107.43107165377933,-182.38461126412602L40.63565845057841,-132.61353699748167L44.61714250402579,-128.0363604825129zM107.43107165377933,-182.38461126412602L44.61714250402579,-128.0363604825129L47.76102606782859,-122.91558680604943z" style="fill:rgb(83,212,212)"/><path d="M180.33603448059168,79.42012694311798L122.23110407813985,-64.08305718679017L183.64938951840153,100.00800028402989zM116.0286267675566,-113.66150353381755L173.80996107703885,38.86968338874504L114.6121011385936,-124.9842736701825z" style="fill:rgb(247,158,158)"/><path d="M107.43107165377933,-182.38461126412602L47.76102606782859,-122.91558680604943L50.016360612980044,-117.29283622606717z" style="fill:rgb(83,212,212)"/><path d="M-48.254829795471046,57.99794670974959L-97.42921118422903,165.60312715828084L40.89266412790402,208.05442217443994z" style="fill:rgb(67,34,190)"/><path d="M183.64938951840153,100.00800028402989L122.62598754732274,-60.92662301527484L184.1543944659905,103.14590414938053z" style="fill:rgb(247,158,158)"/><path d="M107.43107165377933,-182.38461126412602L50.016360612980044,-117.29283622606717L51.33987406509494,-111.21712753604392z" style="fill:rgb(83,212,212)"/><path d="M117.66370478079058,-100.59178410711542L175.65319095899025,50.322790451699206L116.0286267675566,-113.66150353381755z" style="fill:rgb(247,158,158)"/><path d="M122.62598754732274,-60.92662301527484L40.89266412790402,208.05442217443994L184.1543944659905,103.14590414938053z" style="fill:rgb(187,64,221)"/><path d="M-126.36707151497986,-29.9216865718521L-199.62972174613276,24.28897000185524L-122.64735679120331,-25.056761692878812z" style="fill:rgb(83,212,212)"/><path d="M-97.42921118422903,165.60312715828084L-48.254829795471046,57.99794670974959L-199.62972174613276,24.28897000185524z" style="fill:rgb(67,34,190)"/><path d="M119.64962109115865,-84.71770449211698L177.77287945878018,63.49369414302489L117.66370478079058,-100.59178410711542z" style="fill:rgb(247,158,158)"/><path d="M107.43107165377933,-182.38461126412602L51.33987406509494,-111.21712753604392L122.62598754732274,-60.92662301527484z" style="fill:rgb(83,212,212)"/><path d="M122.23110407813985,-64.08305718679017L180.33603448059168,79.42012694311798L119.64962109115865,-84.71770449211698z" style="fill:rgb(247,158,158)"/><path d="M51.697211692137344,-104.74480729614343L122.62598754732274,-60.92662301527484L51.33987406509494,-111.21712753604392z" style="fill:rgb(83,212,212)"/><path d="M122.62598754732274,-60.92662301527484L183.64938951840153,100.00800028402989L122.23110407813985,-64.08305718679017z" style="fill:rgb(247,158,158)"/><path d="M51.06416756506745,-97.93938760678856L122.62598754732274,-60.92662301527484L51.697211692137344,-104.74480729614343zM-122.64735679120331,-25.056761692878812L-48.254829795471046,57.99794670974959L-118.02894406508611,-20.717553557429238zM49.42784945114007,-90.87106830796054L122.62598754732274,-60.92662301527484L51.06416756506745,-97.93938760678856zM-122.64735679120331,-25.056761692878812L-199.62972174613276,24.28897000185524L-48.254829795471046,57.99794670974959zM-118.02894406508611,-20.717553557429238L-48.254829795471046,57.99794670974959L-112.5434980386322,-16.96287621179943zM46.78771137631627,-83.61612987013596L122.62598754732274,-60.92662301527484L49.42784945114007,-90.87106830796054zM43.15642157394586,-76.25610724383573L122.62598754732274,-60.92662301527484L46.78771137631627,-83.61612987013596zM-112.5434980386322,-16.96287621179943L-48.254829795471046,57.99794670974959L-106.2345458432103,-13.846842628636429zM38.560468258184656,-68.87668934127319L122.62598754732274,-60.92662301527484L43.15642157394586,-76.25610724383573zM-106.2345458432103,-13.846842628636429L-48.254829795471046,57.99794670974959L-99.15778915754996,-11.417658237956784z" style="fill:rgb(83,212,212)"/><path d="M40.89266412790402,208.05442217443994L122.62598754732274,-60.92662301527484L-48.254829795471046,57.99794670974959z" style="fill:rgb(187,64,221)"/><path d="M33.040512860500606,-61.56650455022219L122.62598754732274,-60.92662301527484L38.560468258184656,-68.87668934127319zM-99.15778915754996,-11.417658237956784L-48.254829795471046,57.99794670974959L-91.38094550338369,-9.716417522563852zM26.651374705538995,-54.41561948037645L122.62598754732274,-60.92662301527484L33.040512860500606,-61.56650455022219zM19.46165495890502,-47.51398905385527L122.62598754732274,-60.92662301527484L26.651374705538995,-54.41561948037645zM-91.38094550338369,-9.716417522563852L-48.254829795471046,57.99794670974959L-82.98349530646749,-8.775938425093393zM11.55299584279002,-40.9497371499356L122.62598754732274,-60.92662301527484L19.46165495890502,-47.51398905385527zM3.01893029990848,-34.80744596449808L122.62598754732274,-60.92662301527484L11.55299584279002,-40.9497371499356zM-82.98349530646749,-8.775938425093393L-48.254829795471046,57.99794670974959L-74.05597110579124,-8.61969651435828zM-35.17727918011476,-15.93311962625709L122.62598754732274,-60.92662301527484L-25.255776699590946,-19.669930928801666zM-6.036621301811932,-29.166453617574746L122.62598754732274,-60.92662301527484L3.01893029990848,-34.80744596449808zM-25.255776699590946,-19.669930928801666L122.62598754732274,-60.92662301527484L-15.501174939497952,-24.09923293478122zM-15.501174939497952,-24.09923293478122L122.62598754732274,-60.92662301527484L-6.036621301811932,-29.166453617574746zM-74.05597110579124,-8.61969651435828L-48.254829795471046,57.99794670974959L-64.69896419868755,-9.260888035215515zM-64.69896419868755,-9.260888035215515L-48.254829795471046,57.99794670974959L-55.021771149834414,-10.701699220272967zM-55.021771149834414,-10.701699220272967L-48.254829795471046,57.99794670974959L-45.14073161829544,-12.932798276673116zM-45.14073161829544,-12.932798276673116L-48.254829795471046,57.99794670974959L-35.17727918011476,-15.93311962625709zM-35.17727918011476,-15.93311962625709L-48.254829795471046,57.99794670974959L122.62598754732274,-60.92662301527484z" style="fill:rgb(83,212,212)"/></svg>
