<?xml version="1.0" encoding="UTF-8"?>
<!-- Generated by jsxcad -->
<!DOCTYPE svg PUBLIC "-//W3C//DTD SVG 1.1 Tiny//EN" "http://www.w3.org/Graphics/SVG/1.1/DTD/svg11-tiny.dtd">
<svg viewBox="-250 -250 500 500" width="500" height="500" xmlns="http://www.w3.org/2000/svg"><path d="M-70.86035973610512,-143.13497430566656L4.911127391099329,23.917383321197L12.606626658029185,19.787981816809335z" style="fill:rgb(169,53,222)"/><path d="M-61.68240223583068,-147.38217967803428L12.606626658029185,19.787981816809335L20.561587380449517,16.20287052855945z" style="fill:rgb(157,47,222)"/><path d="M-79.79846897392386,-138.37684160675144L-2.460403524185266,28.556783646014104L4.911127391099329,23.917383321197z" style="fill:rgb(180,60,222)"/><path d="M-52.33829874636781,-151.08333165914934L20.561587380449517,16.20287052855945L28.70975570728162,13.192853433652823z" style="fill:rgb(145,43,221)"/><path d="M-2.460403524185266,28.556783646014104L-96.66787688901462,-127.48311940128646L-9.445363452268614,33.668475906823474z" style="fill:rgb(190,67,220)"/><path d="M-42.903180280786444,-154.20630414902718L28.70975570728162,13.192853433652823L36.9832809532143,10.785139562230846z" style="fill:rgb(133,39,219)"/><path d="M-9.445363452268614,33.668475906823474L-104.45959578488109,-121.43246481137322L-15.983239777120527,39.21138498879006z" style="fill:rgb(200,75,217)"/><path d="M-33.453533076102424,-156.72213461644282L36.9832809532143,10.785139562230846L45.312857689216266,9.003211976090697z" style="fill:rgb(121,35,215)"/><path d="M-15.983239777120527,39.21138498879006L-111.73260266002286,-115.04079554631696L-22.015824508891296,45.14110732213031z" style="fill:rgb(210,83,214)"/><path d="M-24.067121181032537,-158.6051420808332L45.312857689216266,9.003211976090697L53.6279012436108,7.866643105030687z" style="fill:rgb(109,33,211)"/><path d="M-22.015824508891296,45.14110732213031L-118.42183336234453,-108.35794400126825L-27.487475555194514,51.409938048493906z" style="fill:rgb(218,92,209)"/><path d="M-14.822850920047241,-159.83315446102063L53.6279012436108,7.866643105030687L61.856727748854354,7.3908847689919375z" style="fill:rgb(97,32,207)"/><path d="M-27.487475555194514,51.409938048493906L-124.46463102895306,-101.43674637865922L-32.34544037117463,57.966890915553925z" style="fill:rgb(225,101,204)"/><path d="M-5.8006048330441375,-160.3878212943355L61.856727748854354,7.3908847689919375L69.92679168505316,7.587004444057761z" style="fill:rgb(85,32,201)"/><path d="M-32.34544037117463,57.966890915553925L-129.8010265244804,-94.33302853363065L-36.54021642950496,64.75777116208646z" style="fill:rgb(232,110,198)"/><path d="M2.9190054556764826,-160.25490903984294L69.92679168505316,7.587004444057761L77.76496231192233,8.461396667140193z" style="fill:rgb(74,32,194)"/><path d="M-36.54021642950496,64.75777116208646L-134.37420654077494,-87.10559178118196L-40.02599462860231,71.7252200219152z" style="fill:rgb(237,120,191)"/><path d="M85.29789479837379,10.015451636345245L2.9190054556764826,-160.25490903984294L77.76496231192233,8.461396667140193z" style="fill:rgb(64,34,187)"/><path d="M-40.02599462860231,71.7252200219152L-138.131119304456,-79.81615300696465L-42.761173193525174,78.80887811877433z" style="fill:rgb(241,129,183)"/><path d="M92.4524353560257,12.245207842811523L11.254966430243869,-159.42468208709124L85.29789479837379,10.015451636345245z" style="fill:rgb(54,37,179)"/><path d="M-42.761173193525174,78.80887811877433L-141.02307859595135,-72.52920086948282L-44.70891103739682,85.9455204382578z" style="fill:rgb(244,139,175)"/><path d="M99.1561929452911,15.140981692553506L19.126298597285942,-157.89236583513073L92.4524353560257,12.245207842811523z" style="fill:rgb(44,40,171)"/><path d="M-44.70891103739682,85.9455204382578L-143.00654115293096,-65.31177362163496L-45.837773572494754,93.06933901348987z" style="fill:rgb(246,149,167)"/><path d="M105.33807752480546,18.68700127175907L26.452603219077357,-155.6586105236632L99.1561929452911,15.140981692553506z" style="fill:rgb(36,45,162)"/><path d="M-143.00654115293096,-65.31177362163496L-46.12241122483148,100.11226509453275L-45.837773572494754,93.06933901348987z" style="fill:rgb(247,158,158)"/><path d="M110.92912279310228,22.861051142079997L33.154740699796776,-152.72998744807754L105.33807752480546,18.68700127175907z" style="fill:rgb(29,50,153)"/><path d="M4.911127391099329,23.917383321197L-70.86035973610512,-143.13497430566656L-79.79846897392386,-138.37684160675144z" style="fill:rgb(169,53,222)"/><path d="M12.606626658029185,19.787981816809335L-61.68240223583068,-147.38217967803428L-70.86035973610512,-143.13497430566656z" style="fill:rgb(157,47,222)"/><path d="M-2.460403524185266,28.556783646014104L-79.79846897392386,-138.37684160675144L-88.42451713782152,-133.14589666163587z" style="fill:rgb(180,60,222)"/><path d="M20.561587380449517,16.20287052855945L-52.33829874636781,-151.08333165914934L-61.68240223583068,-147.38217967803428z" style="fill:rgb(145,43,221)"/><path d="M-144.04392851075923,-58.233162500301184L-45.54428495527226,107.00437335055803L-46.12241122483148,100.11226509453275z" style="fill:rgb(246,167,149)"/><path d="M-96.66787688901462,-127.48311940128646L-2.460403524185266,28.556783646014104L-88.42451713782152,-133.14589666163587z" style="fill:rgb(190,67,220)"/><path d="M28.70975570728162,13.192853433652823L-42.903180280786444,-154.20630414902718L-52.33829874636781,-151.08333165914934z" style="fill:rgb(133,39,219)"/><path d="M-104.45959578488109,-121.43246481137322L-9.445363452268614,33.668475906823474L-96.66787688901462,-127.48311940128646z" style="fill:rgb(200,75,217)"/><path d="M36.9832809532143,10.785139562230846L-33.453533076102424,-156.72213461644282L-42.903180280786444,-154.20630414902718z" style="fill:rgb(121,35,215)"/><path d="M115.86323607109196,27.634156898367277L39.15565720896282,-149.1194852580993L110.92912279310228,22.861051142079997z" style="fill:rgb(22,56,144)"/><path d="M-111.73260266002286,-115.04079554631696L-15.983239777120527,39.21138498879006L-104.45959578488109,-121.43246481137322z" style="fill:rgb(210,83,214)"/><path d="M45.312857689216266,9.003211976090697L-24.067121181032537,-158.6051420808332L-33.453533076102424,-156.72213461644282z" style="fill:rgb(109,33,211)"/><path d="M-144.10459066136573,-51.36448024617576L-44.092417438188654,113.67449023351813L-45.54428495527226,107.00437335055803z" style="fill:rgb(244,175,139)"/><path d="M-118.42183336234453,-108.35794400126825L-22.015824508891296,45.14110732213031L-111.73260266002286,-115.04079554631696z" style="fill:rgb(218,92,209)"/><path d="M53.6279012436108,7.866643105030687L-14.822850920047241,-159.83315446102063L-24.067121181032537,-158.6051420808332z" style="fill:rgb(97,32,207)"/><path d="M120.07813180098105,32.97031669895262L44.38132788415486,-144.8470416794665L115.86323607109196,27.634156898367277z" style="fill:rgb(17,63,134)"/><path d="M-124.46463102895306,-101.43674637865922L-27.487475555194514,51.409938048493906L-118.42183336234453,-108.35794400126825z" style="fill:rgb(225,101,204)"/><path d="M61.856727748854354,7.3908847689919375L-5.8006048330441375,-160.3878212943355L-14.822850920047241,-159.83315446102063z" style="fill:rgb(85,32,201)"/><path d="M-143.16580254008002,-44.77811259689517L-41.76413830995234,120.05079360784137L-44.092417438188654,113.67449023351813z" style="fill:rgb(241,183,129)"/><path d="M-129.8010265244804,-94.33302853363065L-32.34544037117463,57.966890915553925L-124.46463102895306,-101.43674637865922z" style="fill:rgb(232,110,198)"/><path d="M123.51639019450467,38.82631893211734L48.76185830362047,-139.93998980527215L120.07813180098105,32.97031669895262z" style="fill:rgb(13,71,125)"/><path d="M69.92679168505316,7.587004444057761L2.9190054556764826,-160.25490903984294L-5.8006048330441375,-160.3878212943355z" style="fill:rgb(74,32,194)"/><path d="M-134.37420654077494,-87.10559178118196L-36.54021642950496,64.75777116208646L-129.8010265244804,-94.33302853363065z" style="fill:rgb(237,120,191)"/><path d="M-141.2137705090865,-38.54701675484026L-38.565812813263825,126.06160417779452L-41.76413830995234,120.05079360784137z" style="fill:rgb(237,191,120)"/><path d="M126.12650067218445,45.15166352438184L52.23272561112973,-134.43349728458375L123.51639019450467,38.82631893211734z" style="fill:rgb(10,79,115)"/><path d="M2.9190054556764826,-160.25490903984294L85.29789479837379,10.015451636345245L11.254966430243869,-159.42468208709124z" style="fill:rgb(64,34,187)"/><path d="M-138.131119304456,-79.81615300696465L-40.02599462860231,71.7252200219152L-134.37420654077494,-87.10559178118196z" style="fill:rgb(241,129,183)"/><path d="M-180.96969822810786,-105.71848837501855L-124.46463102895306,-101.43674637865922L-40.816906591988996,-197.33452252596734zM-40.816906591988996,-197.33452252596734L-79.79846897392386,-138.37684160675144L-70.86035973610512,-143.13497430566656zM-40.816906591988996,-197.33452252596734L-70.86035973610512,-143.13497430566656L-61.68240223583068,-147.38217967803428zM-40.816906591988996,-197.33452252596734L-88.42451713782152,-133.14589666163587L-79.79846897392386,-138.37684160675144z" style="fill:rgb(83,212,212)"/><path d="M11.254966430243869,-159.42468208709124L92.4524353560257,12.245207842811523L19.126298597285942,-157.89236583513073z" style="fill:rgb(54,37,179)"/><path d="M-40.816906591988996,-197.33452252596734L-61.68240223583068,-147.38217967803428L-52.33829874636781,-151.08333165914934zM-40.816906591988996,-197.33452252596734L-96.66787688901462,-127.48311940128646L-88.42451713782152,-133.14589666163587z" style="fill:rgb(83,212,212)"/><path d="M-141.02307859595135,-72.52920086948282L-42.761173193525174,78.80887811877433L-138.131119304456,-79.81615300696465z" style="fill:rgb(244,139,175)"/><path d="M-40.816906591988996,-197.33452252596734L-52.33829874636781,-151.08333165914934L-42.903180280786444,-154.20630414902718zM-40.816906591988996,-197.33452252596734L-104.45959578488109,-121.43246481137322L-96.66787688901462,-127.48311940128646zM-40.816906591988996,-197.33452252596734L-42.903180280786444,-154.20630414902718L-33.453533076102424,-156.72213461644282zM-40.816906591988996,-197.33452252596734L-111.73260266002286,-115.04079554631696L-104.45959578488109,-121.43246481137322z" style="fill:rgb(83,212,212)"/><path d="M19.126298597285942,-157.89236583513073L99.1561929452911,15.140981692553506L26.452603219077357,-155.6586105236632z" style="fill:rgb(44,40,171)"/><path d="M-40.816906591988996,-197.33452252596734L-118.42183336234453,-108.35794400126825L-111.73260266002286,-115.04079554631696z" style="fill:rgb(83,212,212)"/><path d="M-143.00654115293096,-65.31177362163496L-44.70891103739682,85.9455204382578L-141.02307859595135,-72.52920086948282z" style="fill:rgb(246,149,167)"/><path d="M-40.816906591988996,-197.33452252596734L-124.46463102895306,-101.43674637865922L-118.42183336234453,-108.35794400126825z" style="fill:rgb(83,212,212)"/><path d="M26.452603219077357,-155.6586105236632L105.33807752480546,18.68700127175907L33.154740699796776,-152.72998744807754z" style="fill:rgb(36,45,162)"/><path d="M-46.12241122483148,100.11226509453275L-143.00654115293096,-65.31177362163496L-144.04392851075923,-58.233162500301184z" style="fill:rgb(247,158,158)"/><path d="M-40.816906591988996,-197.33452252596734L-33.453533076102424,-156.72213461644282L104.598623833171,-190.47252745363315zM-124.46463102895306,-101.43674637865922L-180.96969822810786,-105.71848837501855L-129.8010265244804,-94.33302853363065z" style="fill:rgb(83,212,212)"/><path d="M33.154740699796776,-152.72998744807754L110.92912279310228,22.861051142079997L39.15565720896282,-149.1194852580993z" style="fill:rgb(29,50,153)"/><path d="M-45.54428495527226,107.00437335055803L-144.04392851075923,-58.233162500301184L-144.10459066136573,-51.36448024617576z" style="fill:rgb(246,167,149)"/><path d="M39.15565720896282,-149.1194852580993L115.86323607109196,27.634156898367277L44.38132788415486,-144.8470416794665z" style="fill:rgb(22,56,144)"/><path d="M-44.092417438188654,113.67449023351813L-144.10459066136573,-51.36448024617576L-143.16580254008002,-44.77811259689517z" style="fill:rgb(244,175,139)"/><path d="M44.38132788415486,-144.8470416794665L120.07813180098105,32.97031669895262L48.76185830362047,-139.93998980527215z" style="fill:rgb(17,63,134)"/><path d="M104.598623833171,-190.47252745363315L-33.453533076102424,-156.72213461644282L-24.067121181032537,-158.6051420808332z" style="fill:rgb(83,212,212)"/><path d="M-41.76413830995234,120.05079360784137L-143.16580254008002,-44.77811259689517L-141.2137705090865,-38.54701675484026z" style="fill:rgb(241,183,129)"/><path d="M104.598623833171,-190.47252745363315L-24.067121181032537,-158.6051420808332L-14.822850920047241,-159.83315446102063z" style="fill:rgb(83,212,212)"/><path d="M48.76185830362047,-139.93998980527215L123.51639019450467,38.82631893211734L52.23272561112973,-134.43349728458375z" style="fill:rgb(13,71,125)"/><path d="M104.598623833171,-190.47252745363315L-14.822850920047241,-159.83315446102063L-5.8006048330441375,-160.3878212943355zM104.598623833171,-190.47252745363315L-5.8006048330441375,-160.3878212943355L2.9190054556764826,-160.25490903984294z" style="fill:rgb(83,212,212)"/><path d="M-38.565812813263825,126.06160417779452L-141.2137705090865,-38.54701675484026L-138.24469923316323,-32.74390518090203z" style="fill:rgb(237,191,120)"/><path d="M104.598623833171,-190.47252745363315L2.9190054556764826,-160.25490903984294L11.254966430243869,-159.42468208709124zM-129.8010265244804,-94.33302853363065L-180.96969822810786,-105.71848837501855L-204.7517818170036,17.20661254818051z" style="fill:rgb(83,212,212)"/><path d="M166.47042278621615,-13.800787209034201L119.5046167589723,-69.25012959392836L186.384655968804,109.09316755124266z" style="fill:rgb(247,158,158)"/><path d="M52.23272561112973,-134.43349728458375L126.12650067218445,45.15166352438184L54.736093021841626,-128.3708569213116z" style="fill:rgb(10,79,115)"/><path d="M104.598623833171,-190.47252745363315L11.254966430243869,-159.42468208709124L19.126298597285942,-157.89236583513073zM104.598623833171,-190.47252745363315L19.126298597285942,-157.89236583513073L26.452603219077357,-155.6586105236632zM104.598623833171,-190.47252745363315L26.452603219077357,-155.6586105236632L33.154740699796776,-152.72998744807754z" style="fill:rgb(83,212,212)"/><path d="M119.5046167589723,-69.25012959392836L166.47042278621615,-13.800787209034201L104.598623833171,-190.47252745363315z" style="fill:rgb(247,158,158)"/><path d="M-129.8010265244804,-94.33302853363065L-204.7517818170036,17.20661254818051L-134.37420654077494,-87.10559178118196zM104.598623833171,-190.47252745363315L33.154740699796776,-152.72998744807754L39.15565720896282,-149.1194852580993zM-134.37420654077494,-87.10559178118196L-204.7517818170036,17.20661254818051L-138.131119304456,-79.81615300696465zM104.598623833171,-190.47252745363315L39.15565720896282,-149.1194852580993L44.38132788415486,-144.8470416794665zM-138.131119304456,-79.81615300696465L-204.7517818170036,17.20661254818051L-141.02307859595135,-72.52920086948282zM104.598623833171,-190.47252745363315L44.38132788415486,-144.8470416794665L48.76185830362047,-139.93998980527215zM-141.02307859595135,-72.52920086948282L-204.7517818170036,17.20661254818051L-143.00654115293096,-65.31177362163496z" style="fill:rgb(83,212,212)"/><path d="M-52.798341939174726,50.35013638029288L-93.67998256363958,170.78724023216537L44.10933428167364,213.46884730387907z" style="fill:rgb(67,34,190)"/><path d="M-204.7517818170036,17.20661254818051L-144.04392851075923,-58.233162500301184L-143.00654115293096,-65.31177362163496zM104.598623833171,-190.47252745363315L48.76185830362047,-139.93998980527215L52.23272561112973,-134.43349728458375zM-144.04392851075923,-58.233162500301184L-204.7517818170036,17.20661254818051L-144.10459066136573,-51.36448024617576zM104.598623833171,-190.47252745363315L52.23272561112973,-134.43349728458375L54.736093021841626,-128.3708569213116z" style="fill:rgb(83,212,212)"/><path d="M119.5046167589723,-69.25012959392836L44.10933428167364,213.46884730387907L186.384655968804,109.09316755124266z" style="fill:rgb(187,64,221)"/><path d="M-144.10459066136573,-51.36448024617576L-204.7517818170036,17.20661254818051L-143.16580254008002,-44.77811259689517zM104.598623833171,-190.47252745363315L54.736093021841626,-128.3708569213116L56.22224984123821,-121.80367908567439zM-143.16580254008002,-44.77811259689517L-204.7517818170036,17.20661254818051L-141.2137705090865,-38.54701675484026zM-141.2137705090865,-38.54701675484026L-204.7517818170036,17.20661254818051L-138.24469923316323,-32.74390518090203z" style="fill:rgb(83,212,212)"/><path d="M-93.67998256363958,170.78724023216537L-52.798341939174726,50.35013638029288L-204.7517818170036,17.20661254818051z" style="fill:rgb(67,34,190)"/><path d="M-138.24469923316323,-32.74390518090203L-204.7517818170036,17.20661254818051L-134.26578210128272,-27.440261651591015zM104.598623833171,-190.47252745363315L56.22224984123821,-121.80367908567439L119.5046167589723,-69.25012959392836zM56.65106798494596,-114.79189809995869L119.5046167589723,-69.25012959392836L56.22224984123821,-121.80367908567439zM55.99346586608867,-107.40367107805798L119.5046167589723,-69.25012959392836L56.65106798494596,-114.79189809995869zM-134.26578210128272,-27.440261651591015L-52.798341939174726,50.35013638029288L-129.29619038570726,-22.705227575978174zM-134.26578210128272,-27.440261651591015L-204.7517818170036,17.20661254818051L-52.798341939174726,50.35013638029288zM54.232813332732086,-99.71491967574711L119.5046167589723,-69.25012959392836L55.99346586608867,-107.40367107805798zM-129.29619038570726,-22.705227575978174L-52.798341939174726,50.35013638029288L-123.36781900960733,-18.604364022897286zM51.366198346351226,-91.80871119304483L119.5046167589723,-69.25012959392836L54.232813332732086,-99.71491967574711z" style="fill:rgb(83,212,212)"/><path d="M44.10933428167364,213.46884730387907L119.5046167589723,-69.25012959392836L-52.798341939174726,50.35013638029288z" style="fill:rgb(187,64,221)"/><path d="M-123.36781900960733,-18.604364022897286L-52.798341939174726,50.35013638029288L-116.52588420264404,-15.198325842445135zM47.405513593903144,-83.77437853417406L119.5046167589723,-69.25012959392836L51.366198346351226,-91.80871119304483zM42.37824686035426,-75.70631349937312L119.5046167589723,-69.25012959392836L47.405513593903144,-83.77437853417406zM-116.52588420264404,-15.198325842445135L-52.798341939174726,50.35013638029288L-108.82938889729083,-12.541464538941634zM36.32797674270212,-67.70260760443479L119.5046167589723,-69.25012959392836L42.37824686035426,-75.70631349937312zM-108.82938889729083,-12.541464538941634L-52.798341939174726,50.35013638029288L-100.35105777171354,-10.680419762881309zM29.314437171401128,-59.863349915893984L119.5046167589723,-69.25012959392836L36.32797674270212,-67.70260760443479zM-100.35105777171354,-10.680419762881309L-52.798341939174726,50.35013638029288L-91.17714690555731,-9.652741782431086zM21.413151869084462,-52.28884593349389L119.5046167589723,-69.25012959392836L29.314437171401128,-59.863349915893984zM12.714628339631284,-45.07762828299921L119.5046167589723,-69.25012959392836L21.413151869084462,-52.28884593349389zM-91.17714690555731,-9.652741782431086L-52.798341939174726,50.35013638029288L-81.40672295147236,-9.485618616640126zM3.32305935528377,-38.32446170303365L119.5046167589723,-69.25012959392836L12.714628339631284,-45.07762828299921zM-38.71802566884028,-17.54733895924628L119.5046167589723,-69.25012959392836L-27.80168639665724,-21.663256274443174zM-6.645405700532442,-32.11834926836484L119.5046167589723,-69.25012959392836L3.32305935528377,-38.32446170303365zM-27.80168639665724,-21.663256274443174L119.5046167589723,-69.25012959392836L-17.064780034973516,-26.54062887155396zM-17.064780034973516,-26.54062887155396L119.5046167589723,-69.25012959392836L-6.645405700532442,-32.11834926836484zM-81.40672295147236,-9.485618616640126L-52.798341939174726,50.35013638029288L-71.1505947248717,-10.194746143680891zM-71.1505947248717,-10.194746143680891L-52.798341939174726,50.35013638029288L-60.52981148959172,-11.783433881742747zM-60.52981148959172,-11.783433881742747L-52.798341939174726,50.35013638029288L-49.67377969947976,-14.241971431317431zM-49.67377969947976,-14.241971431317431L-52.798341939174726,50.35013638029288L-38.71802566884028,-17.54733895924628zM-38.71802566884028,-17.54733895924628L-52.798341939174726,50.35013638029288L119.5046167589723,-69.25012959392836z" style="fill:rgb(83,212,212)"/></svg>
